<?xml version="1.0" standalone="no"?>
<!DOCTYPE svg PUBLIC "-//W3C//DTD SVG 20010904//EN"
        "http://www.w3.org/TR/2001/REC-SVG-20010904/DTD/svg10.dtd">
<svg version="1.0" xmlns="http://www.w3.org/2000/svg"
     width="267.000000pt" height="267.000000pt" viewBox="0 0 267.000000 267.000000"
     preserveAspectRatio="xMidYMid meet">

    <g transform="translate(0.000000,267.000000) scale(0.100000,-0.100000)"
       fill="#25FF03"
       stroke="none">
        <path d="M1050 2098 c0 -29 -3 -70 -6 -90 l-7 -38 -143 0 -143 0 -3 -37 -3
-38 -247 -5 -247 -5 -79 -75 c-44 -41 -80 -78 -81 -82 0 -4 18 -17 40 -29 l42
-21 51 51 c47 47 56 51 99 51 26 0 47 -4 47 -10 0 -5 -30 -85 -66 -177 -90
-230 -91 -232 -73 -244 8 -5 24 -9 36 -9 86 0 97 -50 26 -122 l-47 -48 35 -36
35 -35 72 41 c65 38 79 42 162 47 l92 6 -4 -24 c-3 -22 -11 -25 -98 -41 -52
-9 -95 -17 -95 -17 0 -1 1 -21 3 -45 3 -39 8 -46 33 -55 26 -9 29 -13 20 -30
-16 -28 -13 -107 4 -140 20 -40 69 -78 115 -92 33 -10 47 -9 87 6 90 35 136
113 116 200 -6 25 -7 45 -4 45 4 0 22 -16 41 -35 l34 -35 332 0 333 0 26 -49
c41 -75 133 -131 216 -131 60 0 131 31 178 78 50 50 71 101 71 171 0 50 11 52
68 10 46 -34 46 -29 22 -143 -5 -22 -7 -44 -4 -48 3 -4 101 -8 218 -8 l212 0
21 45 20 45 -47 22 -48 23 -7 65 c-3 36 -7 74 -8 84 -1 13 -26 33 -74 58 l-72
39 -56 -35 c-30 -20 -58 -36 -60 -36 -5 0 -257 155 -332 204 -18 12 -33 26
-33 32 0 27 32 34 165 36 l139 3 7 28 c4 16 20 99 34 185 15 87 35 204 45 262
10 58 16 108 13 113 -4 7 -596 10 -604 3 -2 -3 -1 -47 2 -98 4 -51 4 -96 0
-100 -15 -16 -28 12 -45 92 -10 47 -27 127 -39 178 l-20 92 -259 0 -258 0 0
-52z m750 -195 c0 -5 1 -105 1 -223 l1 -215 -26 -3 -26 -3 0 98 c0 54 -3 155
-7 226 l-6 127 31 0 c18 0 32 -3 32 -7z m276 -95 c-3 -57 -9 -158 -12 -225
l-7 -123 -98 0 -99 0 0 225 0 225 111 0 111 0 -6 -102z m170 78 c-3 -13 -17
-91 -31 -172 -14 -82 -30 -173 -36 -201 l-10 -53 -46 0 -46 0 7 118 c4 64 9
165 13 225 l6 107 75 0 c73 0 74 0 68 -24z m-376 -748 c56 -29 81 -64 87 -121
10 -87 -64 -170 -152 -170 -142 0 -208 172 -103 270 50 47 103 54 168 21z
m-1139 -157 c75 -76 -15 -205 -110 -157 -67 35 -82 107 -32 157 41 41 101 41
142 0z"/>
        <path d="M1780 1015 c-11 -13 -11 -19 3 -32 21 -21 49 -9 45 19 -4 28 -30 35
-48 13z"/>
        <path d="M643 924 c-8 -21 13 -42 28 -27 13 13 5 43 -11 43 -6 0 -13 -7 -17
-16z"/>
    </g>
</svg>
