<svg width="322" height="472" viewBox="0 0 322 472" fill="none" xmlns="http://www.w3.org/2000/svg">
<path d="M310 4C310 3.44772 309.552 3 309 3C308.448 3 308 3.44772 308 4H310ZM308 4V87H310V4H308Z" fill="black"/>
<rect x="123" y="314" width="71" height="104" fill="#5C5C5C"/>
<rect x="128" y="422" width="60" height="28" rx="2" fill="#555555"/>
<rect x="81" y="314" width="19" height="67" rx="7" fill="#1B1B1B"/>
<rect x="222" y="314" width="19" height="67" rx="7" fill="#1B1B1B"/>
<rect x="109" y="420" width="14" height="11" rx="3" fill="#292929"/>
<rect x="197" y="420" width="14" height="11" rx="3" fill="#292929"/>
<path d="M97 294H225V397C225 414.673 210.673 429 193 429H129C111.327 429 97 414.673 97 397V294Z" fill="#747474"/>
<rect x="231" y="151" width="29" height="92" rx="7" fill="#1B1B1B"/>
<rect x="204" y="186" width="28" height="109" rx="2" fill="#2E2E2E"/>
<rect x="64" y="151" width="29" height="92" rx="7" fill="#1B1B1B"/>
<path d="M119.254 128H202L199 166H123L119.254 128Z" fill="#7D7D7D"/>
<rect x="199" y="166" width="20" height="76" transform="rotate(90 199 166)" fill="#2E2E2E"/>
<rect x="117" y="73" width="9" height="51" fill="#8C8C8C"/>
<rect x="196" y="73" width="9" height="51" fill="#8C8C8C"/>
<rect x="121" y="442" width="13" height="26" rx="6.5" fill="#838383"/>
<rect x="199" y="293" width="20" height="80" rx="2" transform="rotate(90 199 293)" fill="#2E2E2E"/>
<mask id="path-18-inside-1_11_161" fill="white">
<rect x="16" y="7" width="290" height="51" rx="1"/>
</mask>
<rect x="16" y="7" width="290" height="51" rx="1" stroke="black" stroke-width="4" mask="url(#path-18-inside-1_11_161)"/>
<path d="M63.1626 7V57.5" stroke="black" stroke-width="2"/>
<path d="M258.837 7V57.5" stroke="black" stroke-width="2"/>
<path d="M210.434 7V57.5" stroke="black" stroke-width="2"/>
<path d="M111.566 7V57.5" stroke="black" stroke-width="2"/>
<path d="M161 7V57.5" stroke="black" stroke-width="2"/>
<path d="M14 4C14 3.44772 13.5523 3 13 3C12.4477 3 12 3.44772 12 4H14ZM12 4L12 87H14L14 4H12Z" fill="black"/>
<line x1="8" y1="10" x2="8" y2="31" stroke="black" stroke-width="4" stroke-linecap="round"/>
<path d="M316 8C316 6.89543 315.105 6 314 6C312.895 6 312 6.89543 312 8H316ZM312 8V33H316V8H312Z" fill="black"/>
<rect x="4" y="92" width="314" height="4" fill="#696969"/>
<rect x="10" y="29" width="302" height="8" fill="#696969"/>
<rect x="4" y="61" width="314" height="12" fill="#696969"/>
<rect x="312" y="26" width="6" height="77" rx="1" fill="#696969"/>
<rect x="4" y="26" width="6" height="77" rx="1" fill="#696969"/>
<rect x="114" y="186" width="94" height="109" fill="#D9D9D9"/>
<path d="M134 209L114 186V295L134 272V209Z" fill="#515151"/>
<path d="M188 209L208 186V295L188 272V209Z" fill="#515151"/>
<path d="M188 209L208 186H160.5H114L134 209H188Z" fill="#747474"/>
<path d="M134 272L114 295H208L188 272H134Z" fill="#747474"/>
<rect x="133" y="208" width="56" height="65" rx="3" fill="#292929"/>
<path d="M92 186H112C113.105 186 114 186.895 114 188V293C114 294.105 113.105 295 112 295H92C90.8954 295 90 294.105 90 293V188C90 186.895 90.8954 186 92 186Z" fill="#2E2E2E"/>
<rect x="199.839" y="177" width="21.3917" height="8" rx="2" transform="rotate(37.22 199.839 177)" fill="#D9D9D9"/>
<rect x="108.839" y="284" width="21.3917" height="8" rx="2" transform="rotate(37.22 108.839 284)" fill="#D9D9D9"/>
<rect x="195" y="296.939" width="21.3917" height="8" rx="2" transform="rotate(-37.2197 195 296.939)" fill="#D9D9D9"/>
<rect x="144" y="385" width="46" height="29" rx="3" fill="#292929"/>
<rect x="143" y="321" width="77" height="50" rx="5" fill="#B4B4B4"/>
<rect x="121" y="313" width="13" height="148" fill="#A2A2A2"/>
<rect x="104" y="190.939" width="21.3917" height="8" rx="2" transform="rotate(-37.2197 104 190.939)" fill="#D9D9D9"/>
<path d="M104 142C104 139.791 105.791 138 108 138H150C152.209 138 154 139.791 154 142V169C154 171.209 152.209 173 150 173H108C105.791 173 104 171.209 104 169V142Z" fill="#B4B4B4"/>
<path d="M119.46 129H201.572C202.266 129 202.749 128.31 202.512 127.658L195.605 108.658C195.461 108.263 195.085 108 194.665 108H126.828C126.416 108 126.045 108.254 125.896 108.638L118.528 127.638C118.274 128.294 118.757 129 119.46 129Z" fill="#4F4F4F"/>
<rect x="202" y="104" width="6" height="27" rx="2" fill="#292929"/>
<rect x="113" y="104" width="6" height="27" rx="2" fill="#292929"/>
</svg>
