<svg width="371" height="451" viewBox="0 0 371 451" fill="none" xmlns="http://www.w3.org/2000/svg">
<path d="M14 429H357V451H14V429Z" fill="#03434E"/>
<path fill-rule="evenodd" clip-rule="evenodd" d="M0 429V388H371V429H0ZM30 408C30 410.761 27.7614 413 25 413C22.2386 413 20 410.761 20 408C20 405.239 22.2386 403 25 403C27.7614 403 30 405.239 30 408ZM76 408C76 410.761 73.7614 413 71 413C68.2386 413 66 410.761 66 408C66 405.239 68.2386 403 71 403C73.7614 403 76 405.239 76 408ZM122 408C122 410.761 119.761 413 117 413C114.239 413 112 410.761 112 408C112 405.239 114.239 403 117 403C119.761 403 122 405.239 122 408ZM168 408C168 410.761 165.761 413 163 413C160.239 413 158 410.761 158 408C158 405.239 160.239 403 163 403C165.761 403 168 405.239 168 408ZM214 408C214 410.761 211.761 413 209 413C206.239 413 204 410.761 204 408C204 405.239 206.239 403 209 403C211.761 403 214 405.239 214 408ZM260 408C260 410.761 257.761 413 255 413C252.239 413 250 410.761 250 408C250 405.239 252.239 403 255 403C257.761 403 260 405.239 260 408ZM306 408C306 410.761 303.761 413 301 413C298.239 413 296 410.761 296 408C296 405.239 298.239 403 301 403C303.761 403 306 405.239 306 408ZM352 408C352 410.761 349.761 413 347 413C344.239 413 342 410.761 342 408C342 405.239 344.239 403 347 403C349.761 403 352 405.239 352 408ZM33 408C33 412.418 29.4183 416 25 416C20.5817 416 17 412.418 17 408C17 403.582 20.5817 400 25 400C29.4183 400 33 403.582 33 408ZM79 408C79 412.418 75.4183 416 71 416C66.5817 416 63 412.418 63 408C63 403.582 66.5817 400 71 400C75.4183 400 79 403.582 79 408ZM117 416C121.418 416 125 412.418 125 408C125 403.582 121.418 400 117 400C112.582 400 109 403.582 109 408C109 412.418 112.582 416 117 416ZM171 408C171 412.418 167.418 416 163 416C158.582 416 155 412.418 155 408C155 403.582 158.582 400 163 400C167.418 400 171 403.582 171 408ZM209 416C213.418 416 217 412.418 217 408C217 403.582 213.418 400 209 400C204.582 400 201 403.582 201 408C201 412.418 204.582 416 209 416ZM263 408C263 412.418 259.418 416 255 416C250.582 416 247 412.418 247 408C247 403.582 250.582 400 255 400C259.418 400 263 403.582 263 408ZM301 416C305.418 416 309 412.418 309 408C309 403.582 305.418 400 301 400C296.582 400 293 403.582 293 408C293 412.418 296.582 416 301 416ZM355 408C355 412.418 351.418 416 347 416C342.582 416 339 412.418 339 408C339 403.582 342.582 400 347 400C351.418 400 355 403.582 355 408Z" fill="#022F36"/>
<path fill-rule="evenodd" clip-rule="evenodd" d="M184.179 264H188.821L235.5 353.767V391H138V352.766L184.179 264ZM186.5 272.54L145.915 350.554L227.53 351.445L186.5 272.54ZM229.5 357.467L144 356.533V385H229.5V357.467Z" fill="#03434E"/>
<path fill-rule="evenodd" clip-rule="evenodd" d="M183.269 262.5H189.732L237 353.4V392.5H136.5V352.399L183.269 262.5ZM185.09 265.5L139.5 353.133V389.5H234V354.133L187.911 265.5H185.09ZM186.5 269.289L230.015 352.973L143.457 352.027L186.5 269.289ZM148.372 349.08L225.045 349.918L186.499 275.791L148.372 349.08ZM142.5 355.016L231 355.984V386.5H142.5V355.016ZM145.5 358.049V383.5H228V358.951L145.5 358.049Z" fill="black"/>
<path d="M131 175C131 167.268 124.732 161 117 161H104C96.268 161 90 167.268 90 175V285C90 292.732 96.268 299 104 299H117C124.732 299 131 292.732 131 285V175Z" fill="#454444"/>
<path fill-rule="evenodd" clip-rule="evenodd" d="M97.4286 162.635L104.339 165.188C106.152 165.858 108.165 164.931 108.835 163.117C109.096 162.412 109.115 161.675 108.933 161H117C117.707 161 118.403 161.052 119.082 161.154C120.576 161.376 121.993 161.835 123.294 162.491L114.821 165.621C113.007 166.291 112.08 168.304 112.75 170.117C113.42 171.931 115.433 172.858 117.246 172.188L129.03 167.835C130.066 169.571 130.738 171.551 130.937 173.668L114.821 179.621C113.007 180.291 112.08 182.304 112.75 184.117C113.42 185.931 115.433 186.858 117.246 186.188L131 181.107V187.645L114.821 193.621C113.007 194.291 112.08 196.304 112.75 198.117C113.42 199.931 115.433 200.858 117.246 200.188L131 195.107V201.645L114.821 207.621C113.007 208.291 112.08 210.304 112.75 212.117C113.42 213.931 115.433 214.858 117.246 214.188L131 209.107V215.645L114.821 221.621C113.007 222.291 112.08 224.304 112.75 226.117C113.42 227.931 115.433 228.858 117.246 228.188L131 223.107V229.645L114.821 235.621C113.007 236.291 112.08 238.304 112.75 240.117C113.42 241.931 115.433 242.858 117.246 242.188L131 237.107V243.645L114.821 249.621C113.007 250.291 112.08 252.304 112.75 254.117C113.42 255.931 115.433 256.858 117.246 256.188L131 251.107V257.645L114.821 263.621C113.007 264.291 112.08 266.304 112.75 268.117C113.42 269.931 115.433 270.858 117.246 270.188L131 265.107V271.645L114.821 277.621C113.007 278.291 112.08 280.304 112.75 282.117C113.42 283.931 115.433 284.858 117.246 284.188L131 279.107V285C131 285.073 130.999 285.147 130.998 285.22C130.998 285.223 130.998 285.227 130.998 285.23C130.998 285.234 130.998 285.238 130.998 285.242C130.997 285.324 130.994 285.406 130.992 285.488C130.99 285.542 130.988 285.596 130.985 285.65L114.821 291.621C113.007 292.291 112.08 294.304 112.75 296.117C113.42 297.931 115.433 298.858 117.246 298.188L127.312 294.469C124.753 297.254 121.08 299 117 299H104C96.5708 299 90.4931 293.213 90.0285 285.901L104.339 291.188C106.152 291.858 108.165 290.931 108.835 289.117C109.505 287.304 108.578 285.291 106.765 284.621L90 278.428V271.891L104.339 277.188C106.152 277.858 108.165 276.931 108.835 275.117C109.505 273.304 108.578 271.291 106.765 270.621L90 264.428V257.891L104.339 263.188C106.152 263.858 108.165 262.931 108.835 261.117C109.505 259.304 108.578 257.291 106.765 256.621L90 250.428V243.891L104.339 249.188C106.152 249.858 108.165 248.931 108.835 247.117C109.505 245.304 108.578 243.291 106.765 242.621L90 236.428V229.891L104.339 235.188C106.152 235.858 108.165 234.931 108.835 233.117C109.505 231.304 108.578 229.291 106.765 228.621L90 222.428V215.891L104.339 221.188C106.152 221.858 108.165 220.931 108.835 219.117C109.505 217.304 108.578 215.291 106.765 214.621L90 208.428V201.891L104.339 207.188C106.152 207.858 108.165 206.931 108.835 205.117C109.505 203.304 108.578 201.291 106.765 200.621L90 194.428V187.891L104.339 193.188C106.152 193.858 108.165 192.931 108.835 191.117C109.505 189.304 108.578 187.291 106.765 186.621L90 180.428V175C90 174.977 90.0001 174.954 90.0002 174.931C90.0018 174.586 90.016 174.245 90.0421 173.906L104.339 179.188C106.152 179.858 108.165 178.931 108.835 177.117C109.505 175.304 108.578 173.291 106.765 172.621L92.3164 167.284C93.6028 165.34 95.3613 163.736 97.4286 162.635Z" fill="#706F6F"/>
<path d="M242 175C242 167.268 248.268 161 256 161H269C276.732 161 283 167.268 283 175V285C283 292.732 276.732 299 269 299H256C248.268 299 242 292.732 242 285V175Z" fill="#454444"/>
<path d="M275.571 162.635L268.661 165.188C266.848 165.858 264.835 164.931 264.165 163.117C263.904 162.412 263.885 161.675 264.067 161H256C255.293 161 254.597 161.052 253.918 161.154C252.424 161.376 251.007 161.835 249.706 162.491L258.179 165.621C259.993 166.291 260.92 168.304 260.25 170.117C259.58 171.931 257.567 172.858 255.754 172.188L243.97 167.835C242.934 169.571 242.262 171.551 242.063 173.668L258.179 179.621C259.993 180.291 260.92 182.304 260.25 184.117C259.58 185.931 257.567 186.858 255.754 186.188L242 181.107V187.645L258.179 193.621C259.993 194.291 260.92 196.304 260.25 198.117C259.58 199.931 257.567 200.858 255.754 200.188L242 195.107V201.645L258.179 207.621C259.993 208.291 260.92 210.304 260.25 212.117C259.58 213.931 257.567 214.858 255.754 214.188L242 209.107V215.645L258.179 221.621C259.993 222.291 260.92 224.304 260.25 226.117C259.58 227.931 257.567 228.858 255.754 228.188L242 223.107V229.645L258.179 235.621C259.993 236.291 260.92 238.304 260.25 240.117C259.58 241.931 257.567 242.858 255.754 242.188L242 237.107V243.645L258.179 249.621C259.993 250.291 260.92 252.304 260.25 254.117C259.58 255.931 257.567 256.858 255.754 256.188L242 251.107V257.645L258.179 263.621C259.993 264.291 260.92 266.304 260.25 268.117C259.58 269.931 257.567 270.858 255.754 270.188L242 265.107V271.645L258.179 277.621C259.993 278.291 260.92 280.304 260.25 282.117C259.58 283.931 257.567 284.858 255.754 284.188L242 279.107V285C242 285.073 242.001 285.147 242.002 285.22C242.002 285.223 242.002 285.227 242.002 285.23C242.002 285.234 242.002 285.238 242.002 285.242C242.003 285.324 242.006 285.406 242.008 285.488C242.01 285.542 242.012 285.596 242.015 285.65L258.179 291.621C259.993 292.291 260.92 294.304 260.25 296.117C259.58 297.931 257.567 298.858 255.754 298.188L245.688 294.469C248.247 297.254 251.92 299 256 299H269C276.429 299 282.507 293.213 282.971 285.901L268.661 291.188C266.848 291.858 264.835 290.931 264.165 289.117C263.495 287.304 264.422 285.291 266.235 284.621L283 278.428V271.891L268.661 277.188C266.848 277.858 264.835 276.931 264.165 275.117C263.495 273.304 264.422 271.291 266.235 270.621L283 264.428V257.891L268.661 263.188C266.848 263.858 264.835 262.931 264.165 261.117C263.495 259.304 264.422 257.291 266.235 256.621L283 250.428V243.891L268.661 249.188C266.848 249.858 264.835 248.931 264.165 247.117C263.495 245.304 264.422 243.291 266.235 242.621L283 236.428V229.891L268.661 235.188C266.848 235.858 264.835 234.931 264.165 233.117C263.495 231.304 264.422 229.291 266.235 228.621L283 222.428V215.891L268.661 221.188C266.848 221.858 264.835 220.931 264.165 219.117C263.495 217.304 264.422 215.291 266.235 214.621L283 208.428V201.891L268.661 207.188C266.848 207.858 264.835 206.931 264.165 205.117C263.495 203.304 264.422 201.291 266.235 200.621L283 194.428V187.891L268.661 193.188C266.848 193.858 264.835 192.931 264.165 191.117C263.495 189.304 264.422 187.291 266.235 186.621L283 180.428V175C283 174.977 283 174.954 283 174.931C282.998 174.586 282.984 174.245 282.958 173.906L268.661 179.188C266.848 179.858 264.835 178.931 264.165 177.117C263.495 175.304 264.422 173.291 266.235 172.621L280.684 167.284C279.397 165.34 277.639 163.736 275.571 162.635Z" fill="#706F6F"/>
<path d="M179 248C179 244.686 181.686 242 185 242H187C190.314 242 193 244.686 193 248V263C193 266.314 190.314 269 187 269H185C181.686 269 179 266.314 179 263V248Z" fill="#03434E"/>
<path d="M127 36H245V42H127V36Z" fill="#03434E"/>
<path d="M148 34C148 29.5817 151.582 26 156 26H217C221.418 26 225 29.5817 225 34V230C225 234.418 221.418 238 217 238H156C151.582 238 148 234.418 148 230V34Z" fill="#B9D742"/>
<path d="M225 155H246V155.006C246.166 155.002 246.333 155 246.5 155C258.374 155 268 164.626 268 176.5V260H246V259.994C246.005 259.994 246.01 259.995 246.014 259.995C234.364 259.736 225 250.212 225 238.5V155Z" fill="#B9D742"/>
<path d="M148 155H127V155.006C126.834 155.002 126.667 155 126.5 155C114.626 155 105 164.626 105 176.5V260H127V259.994C126.995 259.994 126.99 259.995 126.986 259.995C138.636 259.736 148 250.212 148 238.5V155Z" fill="#B9D742"/>
<path d="M156 155L150.5 148.5H148V237.5H224.5V148.5H222.5L217 155H156Z" fill="#A7A3A3"/>
<path d="M155.5 156.5L148.5 148.5V237H155.5V156.5Z" fill="#1E1E1E"/>
<path d="M217 156L224 148V236.5H217V156Z" fill="#1E1E1E"/>
<path d="M165 182C165 177.582 168.582 174 173 174H200C204.418 174 208 177.582 208 182V216C208 220.418 204.418 224 200 224H173C168.582 224 165 220.418 165 216V182Z" fill="#D9D9D9"/>
<path d="M221 141H152L158 153H214L221 141Z" fill="#1E1E1E"/>
<path d="M193 59C193 62.866 189.866 66 186 66C182.134 66 179 62.866 179 59C179 55.134 182.134 52 186 52C189.866 52 193 55.134 193 59Z" fill="black"/>
<path d="M242 38.5C242 42.0899 239.09 45 235.5 45C231.91 45 229 42.0899 229 38.5C229 34.9101 231.91 32 235.5 32C239.09 32 242 34.9101 242 38.5Z" fill="#03434E"/>
<path d="M144 38.5C144 42.0899 141.09 45 137.5 45C133.91 45 131 42.0899 131 38.5C131 34.9101 133.91 32 137.5 32C141.09 32 144 34.9101 144 38.5Z" fill="#03434E"/>
<path d="M156 238H216V250H156V238Z" fill="#03434E"/>
<path d="M242 8C242 3.58172 245.582 0 250 0H252C256.418 0 260 3.58172 260 8V68C260 72.4183 256.418 76 252 76H250C245.582 76 242 72.4183 242 68V8Z" fill="#706F6F"/>
<path fill-rule="evenodd" clip-rule="evenodd" d="M252.5 75.9846C253.571 75.9186 254.584 75.642 255.5 75.1958V0.804233C254.584 0.357981 253.571 0.0813921 252.5 0.015371V75.9846ZM250.5 0H250C249.127 0 248.287 0.139853 247.5 0.398379V75.6016C248.287 75.8601 249.127 76 250 76H250.5V0ZM260 68C260 70.2879 259.04 72.3514 257.5 73.8095V2.1905C259.04 3.64859 260 5.71214 260 8V68ZM245.5 1.38468C243.387 2.82466 242 5.25033 242 8V68C242 70.7497 243.387 73.1753 245.5 74.6153V1.38468Z" fill="#454444"/>
<path d="M109 8C109 3.58172 112.582 0 117 0H119C123.418 0 127 3.58172 127 8V68C127 72.4183 123.418 76 119 76H117C112.582 76 109 72.4183 109 68V8Z" fill="#706F6F"/>
<path fill-rule="evenodd" clip-rule="evenodd" d="M119.5 75.9846C120.571 75.9186 121.584 75.642 122.5 75.1958V0.804233C121.584 0.357981 120.571 0.0813921 119.5 0.015371V75.9846ZM117.5 0H117C116.127 0 115.287 0.139853 114.5 0.398379V75.6016C115.287 75.8601 116.127 76 117 76H117.5V0ZM127 68C127 70.2879 126.04 72.3514 124.5 73.8095V2.1905C126.04 3.64859 127 5.71214 127 8V68ZM112.5 1.38468C110.387 2.82466 109 5.25033 109 8V68C109 70.7497 110.387 73.1753 112.5 74.6153V1.38468Z" fill="#454444"/>
<path fill-rule="evenodd" clip-rule="evenodd" d="M368 426V391H3V426H368ZM0 388H371V429H357V451H14V429H0V388ZM17 432V448H354V432H17ZM33 408C33 412.418 29.4183 416 25 416C20.5817 416 17 412.418 17 408C17 403.582 20.5817 400 25 400C29.4183 400 33 403.582 33 408ZM25 410C26.1046 410 27 409.105 27 408C27 406.895 26.1046 406 25 406C23.8954 406 23 406.895 23 408C23 409.105 23.8954 410 25 410ZM79 408C79 412.418 75.4183 416 71 416C66.5817 416 63 412.418 63 408C63 403.582 66.5817 400 71 400C75.4183 400 79 403.582 79 408ZM71 410C72.1046 410 73 409.105 73 408C73 406.895 72.1046 406 71 406C69.8954 406 69 406.895 69 408C69 409.105 69.8954 410 71 410ZM125 408C125 412.418 121.418 416 117 416C112.582 416 109 412.418 109 408C109 403.582 112.582 400 117 400C121.418 400 125 403.582 125 408ZM117 410C118.105 410 119 409.105 119 408C119 406.895 118.105 406 117 406C115.895 406 115 406.895 115 408C115 409.105 115.895 410 117 410ZM171 408C171 412.418 167.418 416 163 416C158.582 416 155 412.418 155 408C155 403.582 158.582 400 163 400C167.418 400 171 403.582 171 408ZM163 410C164.105 410 165 409.105 165 408C165 406.895 164.105 406 163 406C161.895 406 161 406.895 161 408C161 409.105 161.895 410 163 410ZM217 408C217 412.418 213.418 416 209 416C204.582 416 201 412.418 201 408C201 403.582 204.582 400 209 400C213.418 400 217 403.582 217 408ZM209 410C210.105 410 211 409.105 211 408C211 406.895 210.105 406 209 406C207.895 406 207 406.895 207 408C207 409.105 207.895 410 209 410ZM263 408C263 412.418 259.418 416 255 416C250.582 416 247 412.418 247 408C247 403.582 250.582 400 255 400C259.418 400 263 403.582 263 408ZM255 410C256.105 410 257 409.105 257 408C257 406.895 256.105 406 255 406C253.895 406 253 406.895 253 408C253 409.105 253.895 410 255 410ZM309 408C309 412.418 305.418 416 301 416C296.582 416 293 412.418 293 408C293 403.582 296.582 400 301 400C305.418 400 309 403.582 309 408ZM301 410C302.105 410 303 409.105 303 408C303 406.895 302.105 406 301 406C299.895 406 299 406.895 299 408C299 409.105 299.895 410 301 410ZM355 408C355 412.418 351.418 416 347 416C342.582 416 339 412.418 339 408C339 403.582 342.582 400 347 400C351.418 400 355 403.582 355 408ZM347 410C348.105 410 349 409.105 349 408C349 406.895 348.105 406 347 406C345.895 406 345 406.895 345 408C345 409.105 345.895 410 347 410ZM36 408C36 414.075 31.0751 419 25 419C18.9249 419 14 414.075 14 408C14 401.925 18.9249 397 25 397C31.0751 397 36 401.925 36 408ZM25 413C27.7614 413 30 410.761 30 408C30 405.239 27.7614 403 25 403C22.2386 403 20 405.239 20 408C20 410.761 22.2386 413 25 413ZM82 408C82 414.075 77.0751 419 71 419C64.9249 419 60 414.075 60 408C60 401.925 64.9249 397 71 397C77.0751 397 82 401.925 82 408ZM71 413C73.7614 413 76 410.761 76 408C76 405.239 73.7614 403 71 403C68.2386 403 66 405.239 66 408C66 410.761 68.2386 413 71 413ZM117 413C119.761 413 122 410.761 122 408C122 405.239 119.761 403 117 403C114.239 403 112 405.239 112 408C112 410.761 114.239 413 117 413ZM128 408C128 414.075 123.075 419 117 419C110.925 419 106 414.075 106 408C106 401.925 110.925 397 117 397C123.075 397 128 401.925 128 408ZM174 408C174 414.075 169.075 419 163 419C156.925 419 152 414.075 152 408C152 401.925 156.925 397 163 397C169.075 397 174 401.925 174 408ZM163 413C165.761 413 168 410.761 168 408C168 405.239 165.761 403 163 403C160.239 403 158 405.239 158 408C158 410.761 160.239 413 163 413ZM209 413C211.761 413 214 410.761 214 408C214 405.239 211.761 403 209 403C206.239 403 204 405.239 204 408C204 410.761 206.239 413 209 413ZM220 408C220 414.075 215.075 419 209 419C202.925 419 198 414.075 198 408C198 401.925 202.925 397 209 397C215.075 397 220 401.925 220 408ZM266 408C266 414.075 261.075 419 255 419C248.925 419 244 414.075 244 408C244 401.925 248.925 397 255 397C261.075 397 266 401.925 266 408ZM255 413C257.761 413 260 410.761 260 408C260 405.239 257.761 403 255 403C252.239 403 250 405.239 250 408C250 410.761 252.239 413 255 413ZM301 413C303.761 413 306 410.761 306 408C306 405.239 303.761 403 301 403C298.239 403 296 405.239 296 408C296 410.761 298.239 413 301 413ZM312 408C312 414.075 307.075 419 301 419C294.925 419 290 414.075 290 408C290 401.925 294.925 397 301 397C307.075 397 312 401.925 312 408ZM358 408C358 414.075 353.075 419 347 419C340.925 419 336 414.075 336 408C336 401.925 340.925 397 347 397C353.075 397 358 401.925 358 408ZM347 413C349.761 413 352 410.761 352 408C352 405.239 349.761 403 347 403C344.239 403 342 405.239 342 408C342 410.761 344.239 413 347 413Z" fill="black"/>
</svg>
