<?xml version="1.0" standalone="no"?>
<svg version="1.0" xmlns="http://www.w3.org/2000/svg"
     width="370.000000pt" height="247.000000pt" viewBox="0 0 370.000000 247.000000"
     preserveAspectRatio="xMidYMid meet">

    <g transform="translate(0.000000,247.000000) scale(0.100000,-0.100000)"
       fill="#FF0101" stroke="none">
        <path d="M1252 1858 c-6 -6 -12 -22 -12 -35 l0 -23 -228 0 c-209 0 -230 -2
-245 -18 -22 -24 -21 -38 3 -62 19 -19 33 -20 245 -20 l225 0 0 -50 c0 -44 -3
-52 -25 -62 -14 -6 -34 -26 -45 -43 -18 -29 -20 -50 -20 -182 0 -140 2 -152
23 -184 27 -41 90 -64 144 -54 55 10 100 60 108 121 10 75 10 75 57 72 41 -3
43 -5 49 -40 11 -67 60 -98 157 -98 23 0 42 -4 42 -8 0 -5 -36 -45 -79 -89
-117 -119 -174 -246 -206 -458 -28 -188 -17 -261 38 -253 30 4 47 43 47 108 0
30 7 96 15 146 29 180 79 291 175 390 47 49 58 55 83 50 16 -3 63 -6 103 -6
l74 0 0 -45 0 -45 -114 0 c-91 0 -118 -3 -130 -16 -13 -12 -16 -41 -16 -145 0
-72 5 -139 10 -150 10 -18 24 -19 300 -19 276 0 290 1 300 19 5 11 10 78 10
150 0 104 -3 133 -16 145 -12 13 -39 16 -130 16 l-114 0 0 45 0 45 83 0 c45 0
91 3 102 6 15 4 35 -9 78 -53 113 -114 186 -325 187 -538 0 -70 19 -105 55
-105 46 0 55 62 35 230 -15 118 -44 221 -92 320 -32 67 -58 102 -119 164 -44
43 -79 82 -79 86 0 4 29 10 65 12 93 8 123 31 139 111 6 24 11 27 50 27 l43 0
7 -62 c6 -51 13 -67 40 -94 61 -61 167 -53 213 15 21 32 23 44 23 183 0 166
-8 196 -60 223 -27 14 -30 20 -30 65 l0 50 225 0 c212 0 226 1 245 20 24 24
24 29 4 58 -15 22 -19 22 -245 22 l-229 0 0 24 c0 55 -66 62 -89 9 l-15 -33
-222 0 c-189 0 -225 -2 -238 -16 -22 -22 -20 -50 6 -68 19 -13 59 -16 240 -16
l218 0 0 -55 c0 -41 -4 -55 -14 -55 -30 0 -65 -58 -72 -120 l-7 -60 -44 0
c-45 0 -46 1 -57 53 -4 16 -20 36 -39 47 -30 19 -52 20 -457 20 -405 0 -427
-1 -457 -20 -19 -11 -35 -31 -39 -47 -11 -52 -12 -53 -57 -53 l-44 0 -6 56
c-6 62 -26 100 -63 116 -21 10 -24 18 -24 65 l0 53 218 0 c181 0 221 3 240 16
26 18 28 46 6 68 -13 14 -49 16 -237 16 l-222 0 -15 33 c-16 35 -55 48 -78 25z
m831 -1010 c22 -26 22 -60 -1 -89 -26 -31 -78 -31 -104 0 -59 74 43 161 105
89z"/>
    </g>
</svg>
