<!-- icon666.com - MILLIONS vector ICONS FREE --><svg enable-background="new 0 0 512 512" viewBox="0 0 512 512" xmlns="http://www.w3.org/2000/svg"><g id="_x30_5_Harvester"><g><path d="m491.339 133.655h-17.239c-7.888 0-14.314 5.955-15.254 13.634h-19.433v-64.881c0-15.358-9.664-28.941-24.082-33.851-99.777-33.851-218.884-33.851-318.661 0-14.419 4.91-24.083 18.493-24.083 33.851v64.881h-19.433c-.94-7.679-7.366-13.634-15.254-13.634h-17.239c-8.515 0-15.411 6.896-15.411 15.41v38.71c0 8.463 6.896 15.411 15.411 15.411h17.239c8.515 0 15.411-6.948 15.411-15.411v-17.552l19.276 5.328v59.292c0 .679.418 2.246.993 3.03l81.65 115.136h-.052v34.008h-21.941v-28.001c0-11.336-9.194-20.53-20.53-20.53h-35.941c-11.336 0-20.53 9.194-20.53 20.53v28.001h-14.157c-10.657 0-19.381 8.724-19.381 19.381v26.329h-6.217c-2.873 0-5.224 2.299-5.224 5.224 0 2.873 2.351 5.224 5.224 5.224h6.217v26.276c0 10.657 8.724 19.381 19.381 19.381h427.842c10.657 0 19.381-8.724 19.381-19.381v-26.276h6.217c2.873 0 5.224-2.351 5.224-5.224 0-2.925-2.351-5.224-5.224-5.224h-6.217v-26.329c0-10.657-8.724-19.381-19.381-19.381h-14.157v-28.001c0-11.336-9.194-20.53-20.53-20.53h-35.941c-11.336 0-20.53 9.194-20.53 20.53v28.001h-21.941v-34.008h-.052l81.65-115.136c.523-.679.993-2.246.993-3.03v-59.292l19.276-5.328v17.552c0 8.463 6.896 15.411 15.411 15.411h17.239c8.515 0 15.411-6.948 15.411-15.411v-38.71c0-8.514-6.896-15.41-15.411-15.41zm-418.752 31.03-19.276-5.276v-1.672h19.276zm-4.284 313.699h-26.224c-4.911 0-8.933-4.023-8.933-8.933v-26.276h35.157zm0-45.657h-35.157v-26.329c0-4.911 4.022-8.933 8.933-8.933h26.224zm375.341-35.262h26.277c4.911 0 8.933 4.022 8.933 8.933v26.329h-35.209v-35.262zm0 45.709h35.209v26.276c0 4.911-4.022 8.933-8.933 8.933h-26.277v-35.209zm-288.466-108.292-67.232-94.815h67.232zm0-105.263h-72.143v-51.195l72.143 19.903zm0-42.105-72.143-19.903v-9.873h72.143zm-41.217 290.87h-35.21v-35.209h35.209v35.209zm0-45.657h-35.21v-35.262h35.209v35.262zm45.605 45.657h-35.157v-35.209h35.157zm0-45.657h-35.157v-35.262h35.157zm45.605 45.657h-35.157v-35.209h35.157zm0-45.657h-35.157v-35.262h35.157zm45.605 45.657h-35.157v-35.209h35.157zm0-45.657h-35.157v-35.262h35.157zm45.605 45.657h-35.157v-35.209h35.157zm0-45.657h-35.157v-35.262h35.157zm45.657 45.657h-35.209v-35.209h35.209zm0-45.657h-35.209v-35.262h35.209zm4.336-45.71h-180.748v-30.508h180.749v30.508zm0-157.398h-180.748v-85.516h180.749v85.516zm41.27 248.765h-35.157v-35.209h35.157zm10.448-80.919h35.105v35.262h-35.105zm0 45.709h35.105v35.209h-35.105zm-10.448-45.709v35.262h-35.157v-35.262zm-30.822-62.583v-94.815h67.232zm72.143-105.263h-72.143v-31.291l72.143-19.903zm0-62.008-72.143 19.903v-29.777h72.143zm0-20.322h-72.143v-20.739c0-14.104-11.493-25.597-25.597-25.597h-150.45c-14.104 0-25.597 11.493-25.597 25.597v20.739h-72.143v-64.881c0-10.866 6.843-20.478 16.978-23.926 97.688-33.172 214.286-33.172 311.974 0 10.134 3.448 16.978 13.06 16.978 23.926z"></path></g></g></svg>