<!-- icon666.com - MILLIONS vector ICONS FREE --><svg viewBox="0 0 475.312 475.312" xmlns="http://www.w3.org/2000/svg"><path d="m435.710938 395.710938-11.3125 11.3125 20.289062 20.289062h-44.6875v-288h-64v288h-24v-224h-64v224h-24v-368h-64v368h-24v-144h-64v144h-24v-396.6875l20.289062 20.285156 11.3125-11.308594-39.601562-39.601562-39.601562 39.601562 11.3125 11.308594 20.289062-20.285156v396.6875h-32v16h32v32h16v-32h396.6875l-20.289062 20.289062 11.3125 11.308594 39.601562-39.597656zm-347.710938 31.601562v-128h32v128zm88 0v-352h32v352zm88 0v-208h32v208zm88 0v-272h32v272zm0 0"></path></svg>