<?xml version="1.0" standalone="no"?>
<!DOCTYPE svg PUBLIC "-//W3C//DTD SVG 20010904//EN"
 "http://www.w3.org/TR/2001/REC-SVG-20010904/DTD/svg10.dtd">
<svg version="1.0" xmlns="http://www.w3.org/2000/svg"
 width="512.000000pt" height="512.000000pt" viewBox="0 0 512.000000 512.000000"
 preserveAspectRatio="xMidYMid meet">

<g transform="translate(0.000000,512.000000) scale(0.100000,-0.100000)"
   fill="white" stroke="black"  stroke-width="10%">
<path d="M1677 5109 c-94 -13 -209 -52 -290 -100 -145 -86 -296 -264 -304
-358 -7 -84 46 -149 129 -158 65 -7 111 18 152 82 66 103 144 169 243 208 252
98 543 -42 623 -302 17 -52 20 -92 20 -232 l0 -169 -658 0 c-727 0 -720 1
-804 -63 -27 -21 -55 -56 -76 -97 l-33 -63 3 -486 3 -486 31 -86 c72 -202 235
-366 431 -434 119 -41 207 -47 689 -43 507 5 499 4 662 84 162 79 288 227 350
409 l27 80 3 468 c4 548 6 535 -88 629 -60 60 -124 88 -202 88 l-38 0 0 183
c0 205 -14 286 -70 406 -142 303 -473 484 -803 440z m901 -1751 c-3 -417 -3
-424 -26 -481 -32 -79 -116 -168 -196 -207 -96 -47 -152 -52 -623 -48 -412 3
-430 4 -487 25 -114 43 -193 121 -242 240 l-24 58 0 418 0 417 800 0 801 0 -3
-422z"/>
<path d="M1715 3470 c-76 -39 -80 -51 -83 -260 -2 -171 -1 -187 18 -218 62
-100 206 -96 262 8 17 31 18 54 16 212 -3 160 -5 179 -24 204 -51 70 -121 89
-189 54z"/>
<path d="M4357 3434 c-214 -52 -401 -242 -453 -460 -40 -169 7 -381 112 -511
l34 -41 0 -662 c0 -570 -2 -666 -15 -697 -58 -139 -216 -197 -345 -127 -29 16
-63 42 -76 59 -50 66 -57 99 -64 300 -7 176 -9 196 -36 270 -76 207 -234 359
-452 434 l-77 26 -1279 3 c-847 2 -1298 -1 -1334 -8 -274 -50 -440 -342 -343
-600 41 -109 148 -217 258 -261 l58 -24 1150 -3 c898 -2 1151 -5 1157 -15 4
-6 8 -31 8 -55 0 -58 26 -180 57 -272 126 -369 433 -654 809 -750 445 -114
919 55 1199 429 71 94 143 232 174 333 50 165 51 184 51 919 l0 690 40 50
c207 263 160 643 -108 858 -141 113 -347 158 -525 115z m281 -313 c187 -96
238 -325 109 -483 -28 -35 -64 -63 -102 -83 -51 -26 -69 -30 -139 -30 -68 0
-90 4 -138 28 -62 30 -115 83 -150 149 -33 63 -33 203 1 268 42 81 115 143
201 171 47 16 172 4 218 -20z m-138 -900 c36 0 84 4 108 8 l43 8 -3 -621 c-4
-698 0 -662 -82 -831 -179 -373 -610 -564 -1002 -444 -146 45 -257 113 -365
226 -166 173 -234 344 -246 620 -7 165 -18 192 -86 223 -41 19 -80 20 -1245
20 -1002 0 -1208 2 -1236 14 -51 21 -81 71 -81 133 0 56 18 90 69 127 27 21
33 21 1274 24 1098 2 1253 0 1306 -13 116 -30 202 -99 258 -207 31 -62 32 -66
39 -253 9 -214 22 -276 85 -382 130 -218 399 -319 638 -239 138 47 247 138
313 263 63 117 63 119 63 753 0 317 2 579 6 582 3 3 22 2 42 -3 20 -5 66 -8
102 -8z"/>
</g>
</svg>
