<?xml version="1.0" standalone="no"?>
<!DOCTYPE svg PUBLIC "-//W3C//DTD SVG 20010904//EN"
 "http://www.w3.org/TR/2001/REC-SVG-20010904/DTD/svg10.dtd">
<svg version="1.0" xmlns="http://www.w3.org/2000/svg"
 width="512.000000pt" height="512.000000pt" viewBox="0 0 512.000000 512.000000"
 preserveAspectRatio="xMidYMid meet">

<g transform="translate(0.000000,512.000000) scale(0.100000,-0.100000)"
   fill="white" stroke="black"  stroke-width="10%">
<path d="M2495 5106 c-35 -11 -2349 -1476 -2417 -1530 -85 -68 -100 -201 -32
-293 16 -21 424 -286 1201 -781 648 -412 1197 -759 1220 -771 56 -28 130 -28
186 0 23 12 571 359 1218 770 784 499 1185 760 1201 781 70 92 56 225 -30 294
-62 49 -2380 1518 -2416 1530 -47 17 -78 17 -131 0z"/>
<path d="M415 2089 c-194 -123 -343 -225 -362 -247 -76 -87 -64 -227 25 -298
15 -12 556 -358 1202 -770 1282 -816 1242 -793 1337 -763 41 14 2347 1471
2425 1533 85 68 100 201 32 293 -23 30 -689 463 -713 463 -6 0 -345 -212 -753
-472 -432 -275 -771 -484 -811 -500 -148 -60 -326 -60 -474 0 -40 16 -379 225
-811 500 -408 260 -747 472 -754 472 -7 0 -161 -95 -343 -211z"/>
</g>
</svg>
