<?xml version="1.0" standalone="no"?>
<!DOCTYPE svg PUBLIC "-//W3C//DTD SVG 20010904//EN"
 "http://www.w3.org/TR/2001/REC-SVG-20010904/DTD/svg10.dtd">
<svg version="1.0" xmlns="http://www.w3.org/2000/svg"
 width="512.000000pt" height="512.000000pt" viewBox="0 0 512.000000 512.000000"
 preserveAspectRatio="xMidYMid meet">

<g transform="translate(0.000000,512.000000) scale(0.100000,-0.100000)"
   fill="white" stroke="black"  stroke-width="10%">
<path d="M2400 5100 c-237 -51 -437 -214 -536 -437 l-23 -52 -588 -3 c-540 -3
-592 -5 -635 -22 -176 -67 -293 -188 -342 -355 -14 -49 -16 -242 -16 -1925 0
-1531 3 -1880 14 -1921 35 -131 136 -260 253 -323 124 -65 0 -62 2033 -62
2033 0 1909 -3 2033 62 117 63 218 192 253 323 11 41 14 390 14 1921 0 1683
-2 1876 -16 1925 -49 167 -166 288 -342 355 -43 17 -95 19 -635 22 l-588 3
-23 52 c-101 228 -311 395 -555 441 -106 20 -194 19 -301 -4z m217 -500 c148
-33 236 -204 178 -348 -21 -52 -103 -128 -153 -142 -47 -13 -117 -13 -164 0
-50 14 -132 90 -153 142 -42 106 -6 238 84 303 66 49 127 62 208 45z m1298
-1350 l180 -180 -1023 -1023 -1022 -1022 -512 512 -513 513 180 180 180 180
330 -330 330 -330 840 840 c462 462 842 840 845 840 3 0 86 -81 185 -180z"/>
</g>
</svg>
