<!-- icon666.com - MILLIONS vector ICONS FREE --><svg xmlns="http://www.w3.org/2000/svg" id="Layer_1" data-name="Layer 1" viewBox="0 0 64 64"><path d="M61,32A29,29,0,1,0,32,61,29,29,0,0,0,61,32ZM32.49,59l-2.24-3,2.27-3a21,21,0,0,0,20.38-19l2.5,1.87a1,1,0,0,0,1.2,0l2.31-1.73A27,27,0,0,1,32.49,59ZM32,13a19,19,0,0,1,9.3,35.55A16,16,0,0,0,33,46V42l2.45,1.44a6.15,6.15,0,0,0,6.1,0l4-2.33a1,1,0,0,0,0-1.72l-4-2.33a6.2,6.2,0,0,0-6.1,0L33,38.51V34l2.45,1.44a6.15,6.15,0,0,0,6.1,0l4-2.33a1,1,0,0,0,0-1.72l-4-2.33a6.2,6.2,0,0,0-6.1,0L33,30.51V29.27l2.19-3.72a6.2,6.2,0,0,0,0-6.1l-2.33-4a1,1,0,0,0-1.72,0l-2.33,4a6.2,6.2,0,0,0,0,6.1L31,29.27v1.24l-2.45-1.44a6.2,6.2,0,0,0-6.1,0l-4,2.33a1,1,0,0,0,0,1.72l4,2.33a6.15,6.15,0,0,0,6.1,0L31,34v4.5l-2.45-1.44a6.2,6.2,0,0,0-6.1,0l-4,2.33a1,1,0,0,0,0,1.72l4,2.33a6.15,6.15,0,0,0,6.1,0L31,42v4a16,16,0,0,0-8.3,2.52A19,19,0,0,1,32,13Zm2,27.26,2.5-1.47a4.19,4.19,0,0,1,4.06,0L43,40.26l-2.5,1.47a4.19,4.19,0,0,1-4.06,0ZM32,27l-1.47-2.5a4.14,4.14,0,0,1,0-4.06L32,18l1.47,2.5a4.14,4.14,0,0,1,0,4.06Zm2,5.23,2.5-1.47a4.19,4.19,0,0,1,4.06,0L43,32.26l-2.5,1.47a4.19,4.19,0,0,1-4.06,0Zm-3.94,0-2.5,1.47a4.19,4.19,0,0,1-4.06,0L21,32.26l2.5-1.47a4.19,4.19,0,0,1,4.06,0Zm0,8-2.5,1.47a4.19,4.19,0,0,1-4.06,0L21,40.26l2.5-1.47a4.19,4.19,0,0,1,4.06,0ZM32,48a15.64,15.64,0,0,1,7.18,1.58,18.86,18.86,0,0,1-14.36,0A15.64,15.64,0,0,1,32,48ZM59,31.51l-3,2.24-3-2.27a21,21,0,0,0-19-20.38L35.8,8.6a1,1,0,0,0,0-1.2L34.06,5.09A27,27,0,0,1,59,31.51ZM31.51,5l2.24,3-2.27,3a21,21,0,0,0-20.38,19L8.6,28.2a1,1,0,0,0-1.2,0L5.09,29.93A27,27,0,0,1,31.51,5ZM5,32.49l3-2.24,3,2.27a21,21,0,0,0,19,20.38L28.2,55.4a1,1,0,0,0,0,1.2l1.74,2.31A27,27,0,0,1,5,32.49Z"></path></svg>