<?xml version="1.0" standalone="no"?>
<!DOCTYPE svg PUBLIC "-//W3C//DTD SVG 20010904//EN"
        "http://www.w3.org/TR/2001/REC-SVG-20010904/DTD/svg10.dtd">
<svg version="1.0" xmlns="http://www.w3.org/2000/svg"
     width="3333.000000pt" height="3333.000000pt" viewBox="0 0 3333.000000 3333.000000"
     preserveAspectRatio="xMidYMid meet">

    <g transform="translate(0.000000,3333.000000) scale(0.100000,-0.100000)"
       fill="#FFF500" stroke="none">
        <path d="M5440 28874 c-206 -44 -373 -204 -425 -409 -23 -90 -23 -2401 0
-2490 27 -104 72 -183 149 -260 117 -116 245 -164 437 -165 60 0 113 -6 141
-16 104 -35 178 -139 178 -248 0 -72 -444 -2304 -467 -2351 -31 -61 -64 -94
-124 -124 l-62 -31 -1011 0 c-1003 0 -1170 -4 -1391 -36 -606 -86 -1204 -352
-1650 -735 -415 -355 -758 -924 -968 -1605 -74 -237 -160 -536 -205 -709 l-36
-140 -3 -1039 c-4 -1145 -6 -1091 59 -1226 21 -43 55 -89 102 -136 176 -177
434 -215 658 -97 57 30 92 60 200 177 203 217 527 537 692 681 954 836 2074
1441 3286 1779 1241 345 2587 394 3860 140 1200 -239 2363 -760 3345 -1498
1028 -772 1852 -1748 2432 -2882 308 -602 513 -1152 673 -1799 278 -1123 316
-2339 110 -3473 -48 -263 -7 -426 145 -577 80 -80 168 -128 274 -151 56 -11
485 -14 2719 -14 2113 0 2653 -3 2656 -12 2 -7 20 -87 40 -178 308 -1424 1135
-2708 2311 -3589 918 -687 1974 -1091 3135 -1197 223 -21 773 -24 985 -6 603
52 1153 176 1690 382 1411 540 2600 1614 3295 2975 347 680 550 1373 637 2170
25 228 25 910 0 1140 -36 338 -83 612 -153 890 -345 1388 -1148 2586 -2314
3455 -531 396 -1195 731 -1828 922 l-139 42 -12 75 c-41 266 -238 958 -380
1340 -254 677 -587 1197 -1062 1656 -669 646 -1420 994 -2250 1045 -103 6
-1308 10 -3234 10 l-3070 0 -237 2482 c-130 1366 -237 2488 -238 2495 0 9 136
13 583 15 646 4 602 -1 747 73 71 36 177 144 218 221 54 103 65 175 58 364
-21 590 -237 1172 -604 1630 -482 601 -1184 974 -1955 1039 -90 8 -1893 11
-6030 10 -5021 0 -5912 -3 -5967 -15z m11698 -3355 c68 -33 114 -82 137 -144
21 -57 977 -10107 966 -10155 -22 -94 -95 -177 -180 -204 -39 -12 -194 -15
-976 -18 l-930 -3 -47 27 c-25 16 -60 44 -75 63 -16 19 -74 140 -128 267 -343
804 -788 1546 -1343 2237 -383 476 -902 998 -1388 1397 -1798 1473 -4072 2224
-6400 2112 -198 -9 -260 -9 -292 0 -95 29 -177 128 -188 229 -5 38 74 449 391
2033 230 1149 405 2005 417 2033 25 57 92 120 151 141 37 13 642 15 4933 15
l4891 1 61 -31z m10427 -9979 c885 -65 1670 -328 2395 -804 1112 -731 1893
-1878 2154 -3161 113 -559 132 -1191 50 -1745 -138 -942 -541 -1818 -1169
-2545 -145 -168 -435 -450 -602 -588 -298 -244 -583 -428 -938 -607 -566 -285
-1092 -438 -1765 -512 -184 -20 -787 -17 -990 5 -1149 126 -2153 597 -2971
1394 -705 687 -1192 1563 -1393 2507 -210 983 -124 2009 245 2929 412 1027
1178 1910 2139 2467 545 316 1157 529 1775 619 120 17 228 28 430 44 99 8 513
6 640 -3z" fill="#FFF500"/>
        <path d="M27000 12769 c-413 -42 -847 -219 -1170 -478 -97 -77 -263 -244 -345
-346 -252 -313 -412 -688 -471 -1105 -20 -142 -20 -433 1 -580 98 -694 497
-1289 1099 -1635 789 -453 1779 -376 2496 195 118 94 301 285 394 409 288 387
436 838 436 1326 0 670 -286 1279 -805 1713 -301 252 -687 425 -1090 487 -125
19 -419 27 -545 14z" fill="#FFF500"/>
        <path d="M6900 18883 c-115 -5 -442 -32 -570 -49 -1097 -139 -2138 -521 -3050
-1118 -1320 -865 -2317 -2125 -2856 -3608 -233 -644 -373 -1332 -415 -2043
-15 -251 -6 -798 16 -1030 117 -1230 506 -2344 1170 -3345 531 -802 1210
-1487 2008 -2024 1444 -972 3203 -1387 4935 -1166 1296 166 2531 686 3557
1499 431 340 891 803 1218 1224 632 813 1071 1712 1317 2697 316 1264 282
2597 -99 3850 -295 972 -791 1863 -1477 2652 -154 177 -553 571 -738 728
-1414 1204 -3159 1806 -5016 1733z m735 -1123 c1790 -130 3405 -1008 4473
-2435 1550 -2070 1633 -4869 207 -7025 -659 -997 -1611 -1790 -2710 -2258
-959 -408 -2008 -561 -3060 -447 -1480 162 -2870 879 -3871 1998 -1299 1452
-1823 3391 -1434 5307 189 931 615 1835 1218 2585 223 277 568 630 832 851
1005 841 2193 1325 3495 1423 160 12 687 13 850 1z"/>
        <path d="M6985 14994 c-331 -32 -563 -80 -830 -169 -971 -325 -1749 -1098
-2085 -2070 -120 -348 -169 -626 -177 -1007 -9 -420 36 -738 158 -1115 248
-764 768 -1414 1464 -1832 749 -450 1662 -584 2520 -369 1173 292 2104 1213
2410 2383 79 299 109 538 108 855 0 390 -55 718 -179 1082 -379 1106 -1331
1944 -2474 2178 -240 49 -356 61 -625 65 -137 1 -268 1 -290 -1z" fill="#FFF500"/>
    </g>
</svg>
