<?xml version="1.0" standalone="no"?>
<!DOCTYPE svg PUBLIC "-//W3C//DTD SVG 20010904//EN"
 "http://www.w3.org/TR/2001/REC-SVG-20010904/DTD/svg10.dtd">
<svg version="1.0" xmlns="http://www.w3.org/2000/svg"
 width="64.000000pt" height="64.000000pt" viewBox="0 0 64.000000 64.000000"
 preserveAspectRatio="xMidYMid meet">

<g transform="translate(0.000000,64.000000) scale(0.100000,-0.100000)"
fill="white" stroke="none">
<path d="M186 552 c-16 -4 -35 -17 -44 -29 -13 -21 -13 -23 6 -23 22 0 23 -2
37 -142 6 -56 6 -58 -17 -58 -48 0 -69 -12 -75 -41 -4 -24 -11 -29 -33 -29
-24 0 -29 -5 -38 -43 -8 -30 -8 -54 0 -85 l10 -42 288 0 288 0 10 42 c8 31 8
55 0 85 -9 38 -14 43 -38 43 -22 0 -29 5 -33 29 -6 29 -27 41 -75 41 -23 0
-23 2 -17 58 14 137 15 141 37 144 l20 3 -20 25 c-19 23 -25 24 -148 26 -71 2
-142 0 -158 -4z m239 -104 c-3 -29 -8 -72 -11 -95 l-5 -43 -89 0 -89 0 -5 43
c-3 23 -8 66 -11 95 l-6 52 111 0 111 0 -6 -52z m-207 -184 c33 -9 28 -34 -8
-34 -23 0 -30 4 -30 20 0 22 3 23 38 14z m242 -14 c0 -16 -7 -20 -30 -20 -33
0 -43 25 -12 33 34 9 42 7 42 -13z m120 -75 c0 -13 -36 -15 -260 -15 -224 0
-260 2 -260 15 0 13 36 15 260 15 224 0 260 -2 260 -15z m0 -60 c0 -13 -36
-15 -260 -15 -224 0 -260 2 -260 15 0 13 36 15 260 15 224 0 260 -2 260 -15z"/>
<path d="M120 436 c0 -31 23 -66 36 -53 3 3 3 24 -1 46 -9 52 -35 57 -35 7z"/>
<path d="M485 429 c-4 -22 -4 -43 -1 -46 13 -13 36 22 36 53 0 50 -26 45 -35
-7z"/>
</g>
</svg>
