<svg width="569" height="570" viewBox="0 0 569 570" fill="none" xmlns="http://www.w3.org/2000/svg">
<path d="M562.933 530.693L413.6 381.36C451.313 335 469.797 275.938 465.25 216.346C460.698 156.758 433.458 101.19 389.141 61.0931C344.829 20.9998 286.818 -0.562857 227.074 0.84781C167.329 2.26448 110.402 26.5451 68.0342 68.6918C25.8888 111.061 1.6075 167.989 0.190168 227.732C-1.2213 287.477 20.3408 345.486 60.4355 389.798C100.534 434.116 156.102 461.356 215.689 465.908C275.277 470.455 334.34 451.97 380.702 414.257L530.035 563.59C536.046 568.736 544.249 570.486 551.833 568.247C559.416 566.002 565.349 560.07 567.593 552.487C569.832 544.903 568.082 536.7 562.937 530.689L562.933 530.693ZM100.933 365.733C65.9115 330.733 46.2302 283.249 46.2195 233.738C46.2091 184.222 65.8702 136.733 100.875 101.717C135.886 66.7011 183.37 47.0291 232.886 47.0291C282.397 47.0291 329.886 66.7011 364.892 101.717C399.902 136.733 419.564 184.222 419.553 233.738C419.542 283.249 399.856 330.733 364.834 365.733C329.985 400.998 282.465 420.848 232.886 420.848C183.302 420.848 135.782 400.998 100.933 365.733Z" fill="black"/>
</svg>
