<svg width="574" height="958" viewBox="0 0 574 958" fill="none" xmlns="http://www.w3.org/2000/svg">
<path d="M57.2871 154.508C57.2871 85.3691 109.067 27.1893 177.74 19.1688L286.211 6.5L394.175 19.1396C462.831 27.1773 514.59 85.3499 514.59 154.475V528.101H57.2871V154.508Z" fill="#FFF500"/>
<path d="M81.3128 112.005C84.7338 60.2648 143.825 48.1526 174.638 48.475C175.645 48.4855 176.426 48.4419 176.426 49.4487C176.426 50.3067 175.84 51.9182 175.01 52.1373C138.77 61.7094 107.463 99.1605 93.8004 120.47C92.0043 123.272 89.2837 126.288 86.15 125.168C83.3713 124.175 80.9108 120.716 81.3128 112.005Z" fill="#FEFFE1"/>
<path d="M78.0388 298.61C82.6173 287.056 76.1311 273.084 72.3157 267.543C69.318 266.998 63.3223 266.726 56.2366 267.543C16.7199 274.084 3.63841 298.61 1.73071 312.781C-0.176995 326.952 67.9552 302.971 78.0388 298.61Z" fill="#FFD600"/>
<path d="M494.364 298.61C489.785 287.056 496.271 273.084 500.087 267.543C503.084 266.998 509.08 266.726 516.166 267.543C555.682 274.084 568.764 298.61 570.672 312.781C572.579 326.952 504.447 302.971 494.364 298.61Z" fill="#FFD600"/>
<path d="M490.336 112.005C486.915 60.2648 427.824 48.1526 397.011 48.475C396.004 48.4855 395.223 48.4419 395.223 49.4487C395.223 50.3067 395.809 51.9182 396.638 52.1373C432.879 61.7094 464.186 99.1605 477.848 120.47C479.644 123.272 482.365 126.288 485.498 125.168C488.277 124.175 490.738 120.716 490.336 112.005Z" fill="#FEFFE1"/>
<path d="M89.7766 229.275C84.9194 215.862 94.0387 201.476 108.241 200.145L235.19 188.249C267.939 185.181 300.898 185.083 333.665 187.957L472.759 200.157C487.499 201.45 496.697 216.737 490.935 230.365L431.292 371.443C427.881 379.512 419.971 384.755 411.211 384.755H161.375C152.197 384.755 144.001 379.007 140.876 370.377L89.7766 229.275Z" fill="#00063E"/>
<path d="M81.2695 506.93V298.53C81.2695 292.829 89.4361 290.669 92.5569 295.44C98.6123 304.697 105.238 313.832 114.246 328.344C147.67 378.479 150.069 466.059 149.732 514.133C149.709 517.382 146.853 519.849 143.628 519.45L86.0519 512.34C83.3208 512.002 81.2695 509.682 81.2695 506.93Z" fill="#00063E"/>
<path d="M490.422 506.93V298.53C490.422 292.829 482.255 290.669 479.134 295.44C473.079 304.697 466.454 313.832 457.446 328.344C424.021 378.479 421.622 466.059 421.96 514.133C421.982 517.382 424.839 519.849 428.064 519.45L485.64 512.34C488.371 512.002 490.422 509.682 490.422 506.93Z" fill="#00063E"/>
<rect x="46.9316" y="909.627" width="479.106" height="42.5129" rx="10.9007" fill="#FFD600"/>
<rect x="57.2871" y="519.926" width="457.303" height="415.863" fill="#FFD600"/>
<path d="M85.6289 923.253V540.636C85.6289 536.121 89.2892 532.461 93.8045 532.461H475.891C480.406 532.461 484.066 536.121 484.066 540.637V923.253C484.066 927.768 480.406 931.428 475.891 931.428H93.8045C89.2892 931.428 85.6289 927.768 85.6289 923.253Z" fill="#E39217"/>
<rect x="101.982" y="534.098" width="5.45037" height="394.607" rx="2.72519" fill="#00063E" fill-opacity="0.35"/>
<rect x="122.148" y="534.098" width="5.45037" height="394.607" rx="2.72519" fill="#00063E" fill-opacity="0.35"/>
<rect x="142.316" y="534.098" width="5.45037" height="394.607" rx="2.72519" fill="#00063E" fill-opacity="0.35"/>
<rect x="162.484" y="534.098" width="5.45037" height="394.607" rx="2.72519" fill="#00063E" fill-opacity="0.35"/>
<rect x="182.65" y="534.098" width="5.45037" height="394.607" rx="2.72519" fill="#00063E" fill-opacity="0.35"/>
<rect x="202.818" y="534.098" width="5.45037" height="394.607" rx="2.72519" fill="#00063E" fill-opacity="0.35"/>
<rect x="222.984" y="534.098" width="5.45037" height="394.607" rx="2.72519" fill="#00063E" fill-opacity="0.35"/>
<rect x="243.15" y="534.098" width="5.45037" height="394.607" rx="2.72519" fill="#00063E" fill-opacity="0.35"/>
<rect x="263.32" y="534.098" width="5.45037" height="394.607" rx="2.72519" fill="#00063E" fill-opacity="0.35"/>
<rect x="283.486" y="534.098" width="5.45037" height="394.607" rx="2.72519" fill="#00063E" fill-opacity="0.35"/>
<rect x="303.654" y="534.098" width="5.45037" height="394.607" rx="2.72519" fill="#00063E" fill-opacity="0.35"/>
<rect x="323.82" y="534.098" width="5.45037" height="394.607" rx="2.72519" fill="#00063E" fill-opacity="0.35"/>
<rect x="343.988" y="534.098" width="5.45037" height="394.607" rx="2.72519" fill="#00063E" fill-opacity="0.35"/>
<rect x="364.156" y="534.098" width="5.45037" height="394.607" rx="2.72519" fill="#00063E" fill-opacity="0.35"/>
<rect x="384.322" y="534.098" width="5.45037" height="394.607" rx="2.72519" fill="#00063E" fill-opacity="0.35"/>
<rect x="404.488" y="534.098" width="5.45037" height="394.607" rx="2.72519" fill="#00063E" fill-opacity="0.35"/>
<rect x="424.658" y="534.098" width="5.45037" height="394.607" rx="2.72519" fill="#00063E" fill-opacity="0.35"/>
<rect x="444.824" y="534.098" width="5.45037" height="394.607" rx="2.72519" fill="#00063E" fill-opacity="0.35"/>
<rect x="464.99" y="534.098" width="5.45037" height="394.607" rx="2.72519" fill="#00063E" fill-opacity="0.35"/>
</svg>
