<?xml version="1.0" standalone="no"?>
<svg version="1.0" xmlns="http://www.w3.org/2000/svg"
     width="512.000000pt" height="512.000000pt" viewBox="0 0 512.000000 512.000000"
     preserveAspectRatio="xMidYMid meet">

    <g transform="translate(0.000000,512.000000) scale(0.0800000,-0.0800000)"
       fill="#FF0000" stroke="none">
        <path d="M778 4947 c-11 -13 -57 -86 -102 -162 l-82 -140 -59 -6 c-33 -4 -73
-12 -90 -18 -41 -16 -103 -78 -121 -120 -20 -48 -18 -147 6 -199 l19 -42 -84
-141 c-92 -152 -104 -194 -66 -240 23 -28 83 -32 109 -6 9 10 53 79 98 154
l80 137 45 -2 c40 -2 75 4 122 23 13 6 17 2 17 -16 0 -12 11 -41 24 -64 22
-37 86 -81 537 -369 281 -180 512 -326 513 -324 1 2 11 23 22 48 53 123 185
279 301 356 30 20 51 40 46 44 -4 4 -265 137 -579 295 -530 268 -575 288 -625
289 -30 1 -69 -3 -86 -7 -24 -6 -33 -5 -33 3 0 7 -11 38 -25 69 l-26 57 86
146 c96 165 105 201 59 237 -36 28 -80 27 -106 -2z m-184 -488 c37 -29 37 -89
0 -118 -47 -37 -102 -24 -124 29 -32 77 57 141 124 89z"/>
        <path d="M4239 4927 c-19 -14 -39 -50 -39 -69 0 -8 45 -87 99 -175 l99 -161
-16 -46 c-16 -45 -18 -46 -47 -39 -16 5 -54 8 -83 7 -49 -1 -88 -18 -465 -209
-608 -307 -760 -387 -750 -394 4 -4 22 -18 38 -30 106 -79 222 -219 284 -346
l36 -71 498 321 c274 177 514 338 533 357 19 19 41 52 49 74 8 24 19 37 27 35
7 -2 41 -6 76 -9 l62 -4 86 -142 c48 -77 96 -151 107 -163 27 -31 71 -30 102
2 40 40 33 69 -55 209 -44 71 -85 137 -90 146 -7 14 -3 32 16 69 21 39 27 65
27 115 0 146 -115 248 -262 232 l-56 -6 -75 127 c-95 162 -113 183 -153 183
-18 0 -39 -6 -48 -13z m416 -472 c16 -15 25 -36 25 -55 0 -19 -9 -40 -25 -55
-15 -16 -36 -25 -55 -25 -19 0 -40 9 -55 25 -16 15 -25 36 -25 55 0 19 9 40
25 55 15 16 36 25 55 25 19 0 40 -9 55 -25z"/>
        <path d="M2513 3813 l-33 -4 0 -408 c0 -398 1 -409 21 -435 29 -37 89 -37 118
0 20 26 21 37 21 434 l0 408 -31 6 c-32 6 -38 6 -96 -1z"/>
        <path d="M2220 3723 c-153 -78 -268 -207 -326 -369 -17 -45 -52 -246 -115
-647 -84 -537 -90 -590 -86 -692 8 -187 69 -320 212 -460 103 -101 192 -149
385 -207 141 -42 149 -43 280 -42 126 0 143 2 260 37 151 45 244 88 329 152
170 129 281 347 281 552 0 71 -160 1134 -186 1238 -47 182 -191 356 -369 445
l-80 40 -5 -413 c-5 -401 -6 -413 -27 -453 -46 -87 -122 -128 -224 -122 -85 5
-150 42 -194 112 l-30 49 -5 415 -5 414 -95 -49z"/>
        <path d="M1190 1379 c-438 -279 -511 -334 -525 -400 -6 -28 -9 -30 -33 -22
-15 4 -61 8 -103 8 l-76 0 -84 123 c-86 126 -103 141 -155 128 -24 -6 -54 -55
-54 -89 0 -8 39 -74 86 -147 84 -131 86 -135 75 -171 -47 -158 44 -308 199
-326 l52 -6 102 -154 c102 -155 119 -171 171 -164 27 3 65 47 65 75 0 13 -43
90 -95 170 l-94 146 24 36 c13 19 29 51 35 70 10 30 16 35 34 30 54 -15 95
-17 135 -6 37 10 1092 550 1114 570 5 4 -19 22 -53 39 -138 70 -275 191 -349
309 -18 28 -36 52 -40 52 -3 0 -197 -122 -431 -271z m-586 -610 c14 -17 26
-39 26 -49 0 -10 -12 -32 -26 -49 -42 -50 -109 -40 -134 19 -10 24 -10 36 0
60 25 60 92 69 134 19z"/>
        <path d="M3476 1622 c-30 -58 -134 -179 -198 -230 -36 -28 -102 -71 -146 -95
l-81 -43 570 -284 c547 -274 571 -285 627 -285 31 0 69 3 83 7 24 7 26 4 42
-44 l17 -52 -91 -165 c-74 -135 -90 -170 -87 -200 3 -30 9 -39 41 -54 67 -33
80 -21 182 156 l90 157 68 0 c107 0 174 38 220 125 31 58 30 154 -2 217 l-24
46 87 148 c52 91 86 160 86 177 0 38 -40 77 -80 77 -44 0 -65 -25 -153 -186
l-78 -142 -67 -4 c-37 -3 -74 -8 -82 -12 -11 -5 -19 6 -32 42 -10 26 -30 59
-45 73 -27 25 -890 585 -918 595 -8 4 -20 -6 -29 -24z m1179 -847 c43 -42 30
-104 -25 -124 -55 -19 -110 22 -110 81 0 63 88 91 135 43z"/>
    </g>
</svg>
