<svg width="572" height="958" viewBox="0 0 572 958" fill="none" xmlns="http://www.w3.org/2000/svg">
<path d="M307.619 855.863H262.61C247.076 855.863 234.111 867.722 232.729 883.195L229.323 921.333C227.756 938.885 241.583 954.001 259.205 954.001H311.62C329.427 954.001 343.315 938.58 341.457 920.87L337.455 882.733C335.852 867.46 322.975 855.863 307.619 855.863Z" fill="black"/>
<rect x="138.508" y="311.766" width="65.9221" height="154.216" rx="30" fill="black"/>
<rect x="367.57" y="311.766" width="65.9221" height="154.216" rx="30" fill="black"/>
<rect x="72.5859" y="522.729" width="81.2373" height="321.117" rx="30" fill="black"/>
<rect x="417.512" y="522.729" width="81.2373" height="321.117" rx="30" fill="black"/>
<path d="M142.835 4L152.35 42.0534H133.32L142.835 4Z" fill="black"/>
<path d="M237.722 4L247.526 42.0534H227.919L237.722 4Z" fill="black"/>
<path d="M333.609 4L343.412 42.0534H323.806L333.609 4Z" fill="black"/>
<path d="M428.499 4L438.014 42.0534H418.984L428.499 4Z" fill="black"/>
<path d="M523.715 4L533.807 42.0534H513.624L523.715 4Z" fill="black"/>
<path d="M47.2809 4L57.0843 42.0534H37.4775L47.2809 4Z" fill="black"/>
<path d="M250.236 898.873L238.25 793.335C236.903 781.472 246.183 771.078 258.123 771.078H313.75C325.732 771.078 335.025 781.543 333.61 793.441L321.053 898.979C319.856 909.039 311.325 916.616 301.193 916.616H270.108C259.936 916.616 251.384 908.98 250.236 898.873Z" fill="#2DD83E"/>
<path d="M444.924 501.365H376.89V789.818C376.89 802.458 380.116 824.216 401.629 827.737C456.756 832.341 460.52 814.736 462.941 805.527C465.057 797.475 473.481 600.225 476.924 563.389C479.253 538.471 474.504 505.97 444.924 501.365Z" fill="#2DD83E"/>
<path d="M126.405 501.365H194.438V789.818C194.438 802.458 191.212 824.216 169.699 827.737C114.572 832.341 110.808 814.736 108.388 805.527C106.271 797.475 97.847 600.225 94.4039 563.389C92.0748 538.471 96.8245 505.97 126.405 501.365Z" fill="#2DD83E"/>
<rect x="165.141" y="345.146" width="61.9268" height="134.188" rx="30" fill="#2DD83E"/>
<rect x="344.93" y="345.146" width="61.9268" height="134.188" rx="30" fill="#2DD83E"/>
<rect x="217.75" y="319.777" width="136.505" height="181.588" rx="20" fill="#21ED00"/>
<path d="M189.113 418.596V227.633C189.113 222.11 193.59 217.633 199.113 217.633H202.419C207.942 217.633 212.419 222.11 212.419 227.633V418.596C212.419 424.118 207.942 428.596 202.419 428.596H199.113C193.59 428.596 189.113 424.118 189.113 418.596Z" fill="#00873E"/>
<path d="M358.914 421.933V230.971C358.914 225.448 363.391 220.971 368.914 220.971H372.22C377.743 220.971 382.22 225.448 382.22 230.971V421.933C382.22 427.456 377.743 431.933 372.22 431.933H368.914C363.391 431.933 358.914 427.456 358.914 421.933Z" fill="#00873E"/>
<path d="M274.344 906.613V715.65C274.344 710.128 278.821 705.65 284.344 705.65H287.65C293.172 705.65 297.65 710.128 297.65 715.65V906.613C297.65 912.136 293.172 916.613 287.65 916.613H284.344C278.821 916.613 274.344 912.136 274.344 906.613Z" fill="#00873E"/>
<path d="M535.018 42.0527H36.9825L4 231.652H568L535.018 42.0527Z" fill="#24FF00"/>
<rect x="157.82" y="488.68" width="255.698" height="315.109" rx="100" fill="#24FF00"/>
<path d="M511.458 62.0801H59.8749L29.9688 210.288H541.364L511.458 62.0801Z" fill="#00873E"/>
<path d="M494.419 79.4375H77.9113L54.6055 192.93H517.392L494.419 79.4375Z" fill="#00063E"/>
</svg>
