<svg width="579" height="959" viewBox="0 0 579 959" fill="none" xmlns="http://www.w3.org/2000/svg">
<path d="M60.5957 155.008C60.5957 85.8691 112.376 27.6893 181.048 19.6688L289.52 7L397.484 19.6396C466.14 27.6773 517.899 85.8499 517.899 154.975V528.601H60.5957V155.008Z" fill="#24FF00"/>
<path d="M84.6214 112.505C88.0424 60.7648 147.134 48.6526 177.947 48.975C178.953 48.9855 179.734 48.9419 179.734 49.9487C179.734 50.8067 179.148 52.4182 178.319 52.6373C142.078 62.2094 110.771 99.6605 97.109 120.97C95.3129 123.772 92.5923 126.788 89.4586 125.668C86.6799 124.675 84.2194 121.216 84.6214 112.505Z" fill="#E1FFE4"/>
<path d="M81.3474 299.11C85.9259 287.556 79.4397 273.584 75.6243 268.043C72.6265 267.498 66.6309 267.226 59.5452 268.043C20.0285 274.584 6.947 299.11 5.0393 313.281C3.1316 327.452 71.2638 303.471 81.3474 299.11Z" fill="#00873E"/>
<path d="M497.672 299.11C493.094 287.556 499.58 273.584 503.395 268.043C506.393 267.498 512.389 267.226 519.474 268.043C558.991 274.584 572.073 299.11 573.98 313.281C575.888 327.452 507.756 303.471 497.672 299.11Z" fill="#00873E"/>
<path d="M493.644 112.505C490.223 60.7648 431.132 48.6526 400.319 48.975C399.312 48.9855 398.532 48.9419 398.531 49.9487C398.531 50.8067 399.117 52.4182 399.947 52.6373C436.187 62.2094 467.494 99.6605 481.157 120.97C482.953 123.772 485.673 126.788 488.807 125.668C491.586 124.675 494.046 121.216 493.644 112.505Z" fill="#E1FFE4"/>
<path d="M93.0852 229.775C88.228 216.362 97.3473 201.976 111.55 200.645L238.499 188.749C271.248 185.681 304.207 185.583 336.973 188.457L476.068 200.657C490.807 201.95 500.005 217.237 494.244 230.865L434.6 371.943C431.189 380.012 423.28 385.255 414.52 385.255H164.683C155.505 385.255 147.31 379.507 144.185 370.877L93.0852 229.775Z" fill="#00063E"/>
<path d="M84.5781 507.43V299.03C84.5781 293.329 92.7447 291.169 95.8655 295.94C101.921 305.197 108.546 314.332 117.554 328.844C150.979 378.979 153.378 466.559 153.04 514.633C153.018 517.882 150.161 520.349 146.936 519.95L89.3604 512.84C86.6294 512.502 84.5781 510.182 84.5781 507.43Z" fill="#00063E"/>
<path d="M493.729 507.43V299.03C493.729 293.329 485.562 291.169 482.441 295.94C476.386 305.197 469.76 314.332 460.753 328.844C427.328 378.979 424.929 466.559 425.266 514.633C425.289 517.882 428.145 520.349 431.37 519.95L488.946 512.84C491.677 512.502 493.729 510.182 493.729 507.43Z" fill="#00063E"/>
<rect x="50.2402" y="910.127" width="479.106" height="42.5129" rx="10.9007" fill="#2CE13E"/>
<rect x="60.5957" y="520.426" width="457.303" height="415.863" fill="#2CE13E"/>
<path d="M88.9395 923.753V541.136C88.9395 536.621 92.5998 532.961 97.115 532.961H479.201C483.716 532.961 487.377 536.621 487.377 541.137V923.753C487.377 928.268 483.716 931.928 479.201 931.928H97.115C92.5998 931.928 88.9395 928.268 88.9395 923.753Z" fill="#00873E"/>
<rect x="105.289" y="534.598" width="5.45037" height="394.607" rx="2.72519" fill="#00063E" fill-opacity="0.35"/>
<rect x="125.457" y="534.598" width="5.45037" height="394.607" rx="2.72519" fill="#00063E" fill-opacity="0.35"/>
<rect x="145.623" y="534.598" width="5.45037" height="394.607" rx="2.72519" fill="#00063E" fill-opacity="0.35"/>
<rect x="165.791" y="534.598" width="5.45037" height="394.607" rx="2.72519" fill="#00063E" fill-opacity="0.35"/>
<rect x="185.957" y="534.598" width="5.45037" height="394.607" rx="2.72519" fill="#00063E" fill-opacity="0.35"/>
<rect x="206.125" y="534.598" width="5.45037" height="394.607" rx="2.72519" fill="#00063E" fill-opacity="0.35"/>
<rect x="226.291" y="534.598" width="5.45037" height="394.607" rx="2.72519" fill="#00063E" fill-opacity="0.35"/>
<rect x="246.459" y="534.598" width="5.45037" height="394.607" rx="2.72519" fill="#00063E" fill-opacity="0.35"/>
<rect x="266.627" y="534.598" width="5.45037" height="394.607" rx="2.72519" fill="#00063E" fill-opacity="0.35"/>
<rect x="286.793" y="534.598" width="5.45037" height="394.607" rx="2.72519" fill="#00063E" fill-opacity="0.35"/>
<rect x="306.961" y="534.598" width="5.45037" height="394.607" rx="2.72519" fill="#00063E" fill-opacity="0.35"/>
<rect x="327.127" y="534.598" width="5.45037" height="394.607" rx="2.72519" fill="#00063E" fill-opacity="0.35"/>
<rect x="347.295" y="534.598" width="5.45037" height="394.607" rx="2.72519" fill="#00063E" fill-opacity="0.35"/>
<rect x="367.461" y="534.598" width="5.45037" height="394.607" rx="2.72519" fill="#00063E" fill-opacity="0.35"/>
<rect x="387.629" y="534.598" width="5.45037" height="394.607" rx="2.72519" fill="#00063E" fill-opacity="0.35"/>
<rect x="407.797" y="534.598" width="5.45037" height="394.607" rx="2.72519" fill="#00063E" fill-opacity="0.35"/>
<rect x="427.963" y="534.598" width="5.45037" height="394.607" rx="2.72519" fill="#00063E" fill-opacity="0.35"/>
<rect x="448.131" y="534.598" width="5.45037" height="394.607" rx="2.72519" fill="#00063E" fill-opacity="0.35"/>
<rect x="468.297" y="534.598" width="5.45037" height="394.607" rx="2.72519" fill="#00063E" fill-opacity="0.35"/>
</svg>
