<svg width="579" height="958" viewBox="0 0 579 958" fill="none" xmlns="http://www.w3.org/2000/svg">
<path d="M58.8516 175.963C58.8516 93.4276 120.665 23.9748 202.643 14.4003L288.831 4.33398L374.517 14.3654C456.475 23.9605 518.264 93.4046 518.264 175.923V528.34H58.8516V175.963Z" fill="#FF0000"/>
<path d="M82.9888 110.323C86.4255 58.3446 145.789 46.1765 176.744 46.5004C177.756 46.511 178.54 46.4672 178.54 47.4786C178.54 48.3406 177.951 49.9595 177.118 50.1796C141.162 59.6767 110.039 96.4916 96.0522 118.024C93.8883 121.356 90.413 125.128 86.9725 123.142C84.564 121.752 82.6278 118.145 82.9888 110.323Z" fill="#FFE1E1"/>
<path d="M79.6994 297.791C84.299 286.183 77.7829 272.148 73.9499 266.581C70.9384 266.033 64.9151 265.76 57.7967 266.581C18.0978 273.151 4.95598 297.791 3.03948 312.027C1.12298 326.264 69.5694 302.172 79.6994 297.791Z" fill="#B50000"/>
<path d="M497.945 297.791C493.346 286.183 499.862 272.148 503.695 266.581C506.706 266.033 512.729 265.76 519.848 266.581C559.547 273.151 572.689 297.791 574.605 312.027C576.522 326.264 508.075 302.172 497.945 297.791Z" fill="#B50000"/>
<path d="M493.898 110.323C490.461 58.3446 431.098 46.1765 400.142 46.5004C399.131 46.511 398.347 46.4672 398.347 47.4786C398.347 48.3406 398.935 49.9595 399.769 50.1796C435.725 59.6767 466.847 96.4916 480.834 118.024C482.998 121.356 486.474 125.128 489.914 123.142C492.323 121.752 494.259 118.145 493.898 110.323Z" fill="#FFE1E1"/>
<path d="M93.3041 233.148C87.5057 217.137 98.392 199.963 115.346 198.374L228.263 187.793C267.357 184.13 306.702 184.013 345.817 187.444L470.594 198.389C488.189 199.932 499.169 218.181 492.291 234.449L435.643 368.442C431.571 378.074 422.129 384.333 411.672 384.333H166.31C155.353 384.333 145.57 377.471 141.839 367.169L93.3041 233.148Z" fill="#00063E"/>
<path d="M82.9453 506.159V301.914C82.9453 295.109 92.8233 292.454 96.6061 298.112C102.077 306.293 108.16 314.911 116.073 327.66C149.387 377.629 152.022 464.625 151.731 513.156C151.707 517.035 148.297 519.982 144.447 519.507L88.6542 512.616C85.394 512.213 82.9453 509.444 82.9453 506.159Z" fill="#00063E"/>
<path d="M493.98 506.159V301.914C493.98 295.109 484.102 292.454 480.32 298.112C474.849 306.293 468.766 314.911 460.852 327.66C427.539 377.629 424.904 464.625 425.195 513.156C425.218 517.035 428.628 519.982 432.478 519.507L488.272 512.616C491.532 512.213 493.98 509.444 493.98 506.159Z" fill="#00063E"/>
<rect x="48.4492" y="911.625" width="481.315" height="42.7089" rx="13.0129" fill="#B50000"/>
<rect x="58.8516" y="520.127" width="459.412" height="417.781" fill="#B50000"/>
<path d="M87.3281 923.768V542.48C87.3281 537.09 91.6977 532.721 97.0878 532.721H477.843C483.233 532.721 487.603 537.09 487.603 542.48V923.768C487.603 929.158 483.233 933.528 477.843 933.528H97.0878C91.6977 933.528 87.3281 929.158 87.3281 923.768Z" fill="#6F0000" fill-opacity="0.71"/>
<rect x="103.754" y="534.367" width="5.4755" height="396.427" rx="2.73775" fill="#00063E" fill-opacity="0.35"/>
<rect x="124.012" y="534.367" width="5.4755" height="396.427" rx="2.73775" fill="#00063E" fill-opacity="0.35"/>
<rect x="144.273" y="534.367" width="5.4755" height="396.427" rx="2.73775" fill="#00063E" fill-opacity="0.35"/>
<rect x="164.535" y="534.367" width="5.4755" height="396.427" rx="2.73775" fill="#00063E" fill-opacity="0.35"/>
<rect x="184.793" y="534.367" width="5.4755" height="396.427" rx="2.73775" fill="#00063E" fill-opacity="0.35"/>
<rect x="205.055" y="534.367" width="5.4755" height="396.427" rx="2.73775" fill="#00063E" fill-opacity="0.35"/>
<rect x="225.312" y="534.367" width="5.4755" height="396.427" rx="2.73775" fill="#00063E" fill-opacity="0.35"/>
<rect x="245.574" y="534.367" width="5.4755" height="396.427" rx="2.73775" fill="#00063E" fill-opacity="0.35"/>
<rect x="265.836" y="534.367" width="5.4755" height="396.427" rx="2.73775" fill="#00063E" fill-opacity="0.35"/>
<rect x="286.094" y="534.367" width="5.4755" height="396.427" rx="2.73775" fill="#00063E" fill-opacity="0.35"/>
<rect x="306.355" y="534.367" width="5.4755" height="396.427" rx="2.73775" fill="#00063E" fill-opacity="0.35"/>
<rect x="326.617" y="534.367" width="5.4755" height="396.427" rx="2.73775" fill="#00063E" fill-opacity="0.35"/>
<rect x="346.875" y="534.367" width="5.4755" height="396.427" rx="2.73775" fill="#00063E" fill-opacity="0.35"/>
<rect x="367.137" y="534.367" width="5.4755" height="396.427" rx="2.73775" fill="#00063E" fill-opacity="0.35"/>
<rect x="387.398" y="534.367" width="5.4755" height="396.427" rx="2.73775" fill="#00063E" fill-opacity="0.35"/>
<rect x="407.656" y="534.367" width="5.4755" height="396.427" rx="2.73775" fill="#00063E" fill-opacity="0.35"/>
<rect x="427.918" y="534.367" width="5.4755" height="396.427" rx="2.73775" fill="#00063E" fill-opacity="0.35"/>
<rect x="448.176" y="534.367" width="5.4755" height="396.427" rx="2.73775" fill="#00063E" fill-opacity="0.35"/>
<rect x="468.438" y="534.367" width="5.4755" height="396.427" rx="2.73775" fill="#00063E" fill-opacity="0.35"/>
</svg>
