<svg width="624" height="711" viewBox="0 0 624 711" fill="none" xmlns="http://www.w3.org/2000/svg">
<rect x="301.969" y="39.2578" width="21.8774" height="53.4848" fill="black"/>
<rect x="542.617" y="268.592" width="77.3813" height="223.664" rx="24.3011" fill="black"/>
<rect x="5" y="268.592" width="77.3813" height="223.664" rx="24.3011" fill="black"/>
<rect x="47.9453" y="74.5078" width="529.11" height="632.498" rx="24.3011" fill="#98FF67"/>
<ellipse cx="312.501" cy="23.4549" rx="19.4466" ry="19.449" fill="black"/>
<ellipse cx="312.5" cy="23.2529" rx="11.3439" ry="11.5478" fill="#98FF67"/>
<path d="M126.635 148.632L66.582 92.3379V689.178L126.635 624.758V148.632Z" fill="#24FF00"/>
<path d="M66.582 92.3379L125.644 148.632H507.172L559.495 92.3379H66.582Z" fill="#2CE13E"/>
<path d="M66.582 689.177L126.635 624.756H507.172L559.099 689.177H66.582Z" fill="#2CE13E"/>
<rect x="126.633" y="148.434" width="380.536" height="476.125" fill="#00873E"/>
<rect x="133.023" y="160.004" width="5.32169" height="452.735" rx="2.40233" fill="#090E44" fill-opacity="0.62"/>
<rect x="152.711" y="160.004" width="5.32169" height="452.735" rx="2.40233" fill="#090E44" fill-opacity="0.62"/>
<rect x="172.406" y="160.004" width="5.32169" height="452.735" rx="2.40233" fill="#090E44" fill-opacity="0.62"/>
<rect x="192.094" y="160.004" width="5.32169" height="452.735" rx="2.40233" fill="#090E44" fill-opacity="0.62"/>
<rect x="211.781" y="160.004" width="5.32169" height="452.735" rx="2.40233" fill="#090E44" fill-opacity="0.62"/>
<rect x="231.484" y="160.004" width="5.32169" height="452.735" rx="2.40233" fill="#090E44" fill-opacity="0.62"/>
<rect x="251.172" y="160.004" width="5.32169" height="452.735" rx="2.40233" fill="#090E44" fill-opacity="0.62"/>
<rect x="270.859" y="160.004" width="5.32169" height="452.735" rx="2.40233" fill="#090E44" fill-opacity="0.62"/>
<rect x="290.551" y="160.004" width="5.32169" height="452.735" rx="2.40233" fill="#090E44" fill-opacity="0.62"/>
<rect x="310.242" y="160.004" width="5.32169" height="452.735" rx="2.40233" fill="#090E44" fill-opacity="0.62"/>
<rect x="329.938" y="160.004" width="5.32169" height="452.735" rx="2.40233" fill="#090E44" fill-opacity="0.62"/>
<rect x="349.625" y="160.004" width="5.32169" height="452.735" rx="2.40233" fill="#090E44" fill-opacity="0.62"/>
<rect x="369.309" y="160.004" width="5.32169" height="452.735" rx="2.40233" fill="#090E44" fill-opacity="0.62"/>
<rect x="389" y="160.004" width="5.32169" height="452.735" rx="2.40233" fill="#090E44" fill-opacity="0.62"/>
<rect x="408.699" y="160.004" width="5.32169" height="452.735" rx="2.40233" fill="#090E44" fill-opacity="0.62"/>
<rect x="428.391" y="160.004" width="5.32169" height="452.735" rx="2.40233" fill="#090E44" fill-opacity="0.62"/>
<rect x="448.086" y="160.004" width="5.32169" height="452.735" rx="2.40233" fill="#090E44" fill-opacity="0.62"/>
<rect x="467.766" y="160.004" width="5.32169" height="452.735" rx="2.40233" fill="#090E44" fill-opacity="0.62"/>
<rect x="487.461" y="160.004" width="5.32169" height="452.735" rx="2.40233" fill="#090E44" fill-opacity="0.62"/>
<path d="M499.267 149.037L559.32 92.7422V689.582L499.267 625.162V149.037Z" fill="#24FF00"/>
</svg>
