<svg width="409" height="892" viewBox="0 0 409 892" fill="none" xmlns="http://www.w3.org/2000/svg">
<path d="M255.089 4H154.388C153.324 4 152.295 4.3783 151.485 5.0673C148.306 7.76896 150.217 12.9666 154.388 12.9666H255.089C259.34 12.9666 261.204 7.603 257.87 4.96653C257.078 4.34054 256.098 4 255.089 4Z" fill="black"/>
<rect x="350.531" y="577.861" width="35.3389" height="114.456" rx="15" fill="black"/>
<rect x="337.875" y="63.6016" width="35.3389" height="114.456" rx="15" fill="black"/>
<rect x="36.7031" y="63.6016" width="35.3389" height="114.456" rx="15" fill="black"/>
<rect x="350.531" y="741.371" width="35.3389" height="114.456" rx="15" fill="black"/>
<rect x="24.043" y="741.371" width="35.3389" height="114.456" rx="15" fill="black"/>
<rect x="24.043" y="577.861" width="35.3389" height="114.456" rx="15" fill="black"/>
<path d="M35.6484 322.051H374.796L362.138 440.199H47.7797L35.6484 322.051Z" fill="#24FF00"/>
<path d="M361.08 217.879C369.519 196.781 358.619 189.572 352.114 188.605L350.531 217.879C350.531 226.67 352.641 238.977 361.08 217.879Z" fill="black" stroke="black"/>
<path d="M48.744 217.879C40.3049 196.781 51.2055 189.572 57.7106 188.605L59.293 217.879C59.293 226.67 57.1832 238.977 48.744 217.879Z" fill="black" stroke="black"/>
<path d="M56.7422 59.8027C56.7422 32.1885 79.128 9.80273 106.742 9.80273H303.167C330.781 9.80273 353.167 32.1885 353.167 59.8027V298.843H56.7422V59.8027Z" fill="#24FF00"/>
<path d="M309.869 10.2444C334.801 13.8202 344.707 35.2884 346.778 47.0286C346.873 47.5643 346.454 48.0426 345.91 48.0426C345.723 48.0426 345.541 47.984 345.389 47.8752L311.075 23.2526C307.95 21.1274 303.349 17.0377 303.075 13.5623C302.838 10.5677 306.896 9.81791 309.869 10.2444Z" fill="#FFFCE3"/>
<path d="M100.674 10.2444C75.7419 13.8202 65.836 35.2884 63.7648 47.0286C63.6702 47.5643 64.089 48.0426 64.633 48.0426C64.8197 48.0426 65.0018 47.984 65.1535 47.8752L99.4679 23.2526C102.593 21.1274 107.194 17.0377 107.468 13.5623C107.705 10.5677 103.647 9.81791 100.674 10.2444Z" fill="#FFFCE3"/>
<path d="M279.564 148.34L263.048 27.3657C262.833 25.7919 261.568 24.5704 259.987 24.411L258.378 24.2488C222.225 20.6042 185.795 20.6583 149.653 24.4104C148.116 24.57 146.889 25.7645 146.688 27.2973L130.839 148.359C130.433 151.46 132.941 154.168 136.063 154.001L204.007 150.378L274.352 154.01C277.483 154.172 279.988 151.446 279.564 148.34Z" fill="#2CE13E"/>
<path d="M75.217 247.221C74.1929 232.925 72.6963 210.9 72.07 196.035C71.7971 189.559 75.9168 183.776 82.1558 182.02C163.819 159.037 277.998 168.501 329.87 181.911C336.521 183.63 340.673 189.976 340.152 196.826L336.316 247.22C335.711 255.168 328.994 261.255 321.025 261.077L204.958 258.493L90.4698 261.074C82.5015 261.253 75.7865 255.171 75.217 247.221Z" fill="#012F00"/>
<path d="M359.499 202.585C371.103 190.981 394.926 204.607 405.387 212.87C405.387 214.453 404.754 218.567 402.222 222.364C388.93 211.393 368.202 211.464 359.499 212.87V202.585Z" fill="#24FF00"/>
<path d="M49.8878 202.585C38.284 190.981 14.461 204.607 4 212.87C4 214.453 4.63294 218.567 7.16468 222.364C20.4563 211.393 41.185 211.464 49.8878 212.87V202.585Z" fill="#24FF00"/>
<rect x="47.7773" y="440.197" width="314.358" height="447.802" fill="#24FF00"/>
<rect x="66.2383" y="440.197" width="277.437" height="432.506" fill="#2CE13E"/>
<path d="M55.6914 403.805L66.2403 440.198H343.677L354.753 403.805H206.014H55.6914Z" fill="#2CE13E"/>
<path d="M55.6914 403.805L87.8656 450.747H319.415L354.753 403.805H206.014H55.6914Z" fill="#00873E"/>
<path d="M56.7463 298.314L35.6484 322.05H374.796L353.171 298.314H56.7463Z" fill="#2CE13E"/>
<path d="M181.58 171.738C149.579 193.983 141.7 223.954 141.959 244.696C142.073 253.8 150.203 260 159.308 260H316.684C326.399 260 334.629 253.006 335.541 243.334C336.618 231.923 337.647 215.91 337.927 196.298C338.021 189.734 334.724 183.538 328.482 181.507C301.515 172.736 238.857 169.467 192.373 168.599C188.535 168.527 184.732 169.547 181.58 171.738Z" fill="url(#paint0_linear_45_622)"/>
<path d="M92.5 846.193L90 466.193L321.5 466V846.193H92.5Z" fill="#2CE13E"/>
<rect x="100" y="468.193" width="3.54296" height="375.847" fill="#00063E" fill-opacity="0.35"/>
<rect x="113.109" y="468.193" width="3.54296" height="375.847" fill="#00063E" fill-opacity="0.35"/>
<rect x="126.219" y="468.193" width="3.54296" height="375.847" fill="#00063E" fill-opacity="0.35"/>
<rect x="139.328" y="468.193" width="3.54296" height="375.847" fill="#00063E" fill-opacity="0.35"/>
<rect x="152.438" y="468.193" width="3.54296" height="375.847" fill="#00063E" fill-opacity="0.35"/>
<rect x="165.547" y="468.193" width="3.54296" height="375.847" fill="#00063E" fill-opacity="0.35"/>
<rect x="178.656" y="468.193" width="3.54296" height="375.847" fill="#00063E" fill-opacity="0.35"/>
<rect x="191.766" y="468.193" width="3.54296" height="375.847" fill="#00063E" fill-opacity="0.35"/>
<rect x="204.875" y="468.193" width="3.54296" height="375.847" fill="#00063E" fill-opacity="0.35"/>
<rect x="217.984" y="468.193" width="3.54296" height="375.847" fill="#00063E" fill-opacity="0.35"/>
<rect x="231.094" y="468.193" width="3.54296" height="375.847" fill="#00063E" fill-opacity="0.35"/>
<rect x="244.203" y="468.193" width="3.54296" height="375.847" fill="#00063E" fill-opacity="0.35"/>
<rect x="257.312" y="468.193" width="3.54296" height="375.847" fill="#00063E" fill-opacity="0.35"/>
<rect x="270.426" y="468.193" width="3.54296" height="375.847" fill="#00063E" fill-opacity="0.35"/>
<rect x="283.531" y="468.193" width="3.54296" height="375.847" fill="#00063E" fill-opacity="0.35"/>
<rect x="296.645" y="468.193" width="3.54296" height="375.847" fill="#00063E" fill-opacity="0.35"/>
<rect x="309.75" y="468.193" width="3.54296" height="375.847" fill="#00063E" fill-opacity="0.35"/>
<defs>
<linearGradient id="paint0_linear_45_622" x1="186.61" y1="206.023" x2="338.04" y2="259.893" gradientUnits="userSpaceOnUse">
<stop stop-color="#023204" stop-opacity="0.3"/>
<stop offset="0.233664" stop-color="#6F9868" stop-opacity="0.38"/>
<stop offset="1" stop-color="#001700" stop-opacity="0.84"/>
</linearGradient>
</defs>
</svg>
