<svg width="572" height="958" viewBox="0 0 572 958" fill="none" xmlns="http://www.w3.org/2000/svg">
<path d="M307.619 855.861H262.61C247.076 855.861 234.111 867.72 232.729 883.193L229.323 921.331C227.756 938.883 241.583 953.999 259.205 953.999H311.62C329.427 953.999 343.315 938.579 341.457 920.869L337.455 882.731C335.852 867.458 322.975 855.861 307.619 855.861Z" fill="black"/>
<path d="M250.24 898.873L238.254 793.335C236.907 781.472 246.187 771.078 258.126 771.078H313.754C325.736 771.078 335.029 781.543 333.614 793.441L321.057 898.979C319.86 909.04 311.329 916.616 301.197 916.616H270.112C259.94 916.616 251.388 908.98 250.24 898.873Z" fill="#B50000"/>
<rect x="138.508" y="311.764" width="65.9221" height="154.217" rx="30" fill="black"/>
<rect x="367.57" y="311.764" width="65.9221" height="154.217" rx="30" fill="black"/>
<rect x="72.5859" y="522.727" width="81.2373" height="321.118" rx="30" fill="black"/>
<rect x="417.512" y="522.727" width="81.2373" height="321.118" rx="30" fill="black"/>
<path d="M444.928 501.363H376.894V789.817C376.894 802.456 380.12 824.215 401.633 827.736C456.76 832.34 460.524 814.735 462.944 805.526C465.061 797.474 473.485 600.223 476.928 563.388C479.257 538.47 474.508 505.968 444.928 501.363Z" fill="#B50000"/>
<path d="M126.408 501.363H194.442V789.817C194.442 802.456 191.216 824.215 169.703 827.736C114.576 832.34 110.812 814.735 108.391 805.526C106.275 797.474 97.8509 600.223 94.4078 563.388C92.0787 538.47 96.8284 505.968 126.408 501.363Z" fill="#B50000"/>
<path d="M142.835 4L152.35 42.0535H133.32L142.835 4Z" fill="black"/>
<path d="M237.726 4L247.53 42.0535H227.923L237.726 4Z" fill="black"/>
<path d="M333.609 4L343.412 42.0535H323.806L333.609 4Z" fill="black"/>
<path d="M428.495 4L438.01 42.0535H418.98L428.495 4Z" fill="black"/>
<path d="M523.715 4L533.807 42.0535H513.624L523.715 4Z" fill="black"/>
<path d="M47.2809 4L57.0843 42.0535H37.4775L47.2809 4Z" fill="black"/>
<rect x="165.141" y="345.145" width="61.9268" height="134.189" rx="30" fill="#B50000"/>
<rect x="344.93" y="345.145" width="61.9268" height="134.189" rx="30" fill="#B50000"/>
<rect x="217.746" y="319.775" width="136.505" height="181.589" rx="20" fill="#F10000"/>
<path d="M189.113 418.594V227.631C189.113 222.108 193.59 217.631 199.113 217.631H202.419C207.942 217.631 212.419 222.108 212.419 227.631V418.594C212.419 424.117 207.942 428.594 202.419 428.594H199.113C193.59 428.594 189.113 424.117 189.113 418.594Z" fill="#FF6464"/>
<path d="M358.914 421.934V230.971C358.914 225.448 363.391 220.971 368.914 220.971H372.22C377.743 220.971 382.22 225.448 382.22 230.971V421.934C382.22 427.457 377.743 431.934 372.22 431.934H368.914C363.391 431.934 358.914 427.457 358.914 421.934Z" fill="#FF6464"/>
<path d="M274.348 906.614V715.65C274.348 710.128 278.825 705.65 284.348 705.65H287.653C293.176 705.65 297.653 710.128 297.653 715.65V906.614C297.653 912.137 293.176 916.614 287.653 916.614H284.348C278.825 916.614 274.348 912.137 274.348 906.614Z" fill="#FF6464"/>
<path d="M535.018 42.0527H36.9825L4 231.653H568L535.018 42.0527Z" fill="#FF0000"/>
<rect x="157.82" y="488.68" width="255.698" height="315.11" rx="100" fill="#FF0000"/>
<path d="M511.458 62.0781H59.8749L29.9688 210.286H541.364L511.458 62.0781Z" fill="#FF6464"/>
<path d="M494.423 79.4375H77.9152L54.6094 192.93H517.396L494.423 79.4375Z" fill="#00063E"/>
</svg>
