<svg width="572" height="958" viewBox="0 0 572 958" fill="none" xmlns="http://www.w3.org/2000/svg">
<path d="M321.127 855.863H248.89C241.123 855.863 234.64 861.793 233.949 869.529L227.865 937.667C227.081 946.443 233.994 954.001 242.805 954.001H328.277C337.18 954.001 344.124 946.291 343.195 937.436L336.045 869.298C335.244 861.662 328.806 855.863 321.127 855.863Z" fill="black"/>
<rect x="138.508" y="311.766" width="65.9221" height="154.216" rx="20" fill="black"/>
<rect x="367.57" y="311.766" width="65.9221" height="154.216" rx="20" fill="black"/>
<rect x="72.5859" y="522.729" width="81.2373" height="321.117" rx="30" fill="black"/>
<rect x="417.512" y="522.729" width="81.2373" height="321.117" rx="30" fill="black"/>
<path d="M142.835 4L152.35 42.0534H133.32L142.835 4Z" fill="black"/>
<path d="M237.722 4L247.526 42.0534H227.919L237.722 4Z" fill="black"/>
<path d="M333.609 4L343.412 42.0534H323.806L333.609 4Z" fill="black"/>
<path d="M428.499 4L438.014 42.0534H418.984L428.499 4Z" fill="black"/>
<path d="M523.715 4L533.807 42.0534H513.624L523.715 4Z" fill="black"/>
<path d="M47.2809 4L57.0843 42.0534H37.4775L47.2809 4Z" fill="black"/>
<path d="M251.244 907.744L236.986 782.207C236.313 776.275 240.953 771.078 246.923 771.078H325.01C331.001 771.078 335.648 776.31 334.94 782.26L320.004 907.797C319.406 912.828 315.14 916.616 310.074 916.616H261.18C256.093 916.616 251.817 912.798 251.244 907.744Z" fill="#FFD600"/>
<path d="M444.924 513.365H376.89V801.818C376.89 814.458 380.116 836.216 401.629 839.737C456.756 844.341 460.52 826.736 462.941 817.527C465.057 809.475 473.481 612.225 476.924 575.389C479.253 550.471 474.504 517.97 444.924 513.365Z" fill="#FFD600"/>
<path d="M126.405 513.365H194.438V801.818C194.438 814.458 191.212 836.216 169.699 839.737C114.572 844.341 110.808 826.736 108.388 817.527C106.271 809.475 97.847 612.225 94.4039 575.389C92.0748 550.471 96.8245 517.97 126.405 513.365Z" fill="#FFD600"/>
<rect x="165.141" y="345.146" width="61.9268" height="134.188" rx="20" fill="#FFD600"/>
<rect x="344.93" y="345.146" width="61.9268" height="134.188" rx="20" fill="#FFD600"/>
<rect x="217.75" y="321.777" width="136.505" height="181.588" rx="10" fill="#FFE500"/>
<path d="M199 420.963V220C199 217.239 201.239 215 204 215H217.306C220.067 215 222.306 217.239 222.306 220V420.963C222.306 423.724 220.067 425.963 217.306 425.963H204C201.239 425.963 199 423.724 199 420.963Z" fill="#FFAA2B"/>
<path d="M349.305 424.301V223.338C349.305 220.576 351.543 218.338 354.305 218.338H367.61C370.372 218.338 372.61 220.576 372.61 223.338V424.301C372.61 427.062 370.372 429.301 367.61 429.301H354.305C351.543 429.301 349.305 427.062 349.305 424.301Z" fill="#FFAA2B"/>
<path d="M274.344 911.613V710.65C274.344 707.889 276.582 705.65 279.344 705.65H292.65C295.411 705.65 297.65 707.889 297.65 710.65V911.613C297.65 914.375 295.411 916.613 292.65 916.613H279.344C276.582 916.613 274.344 914.375 274.344 911.613Z" fill="#FFAA2B"/>
<path d="M535.018 42.0527H36.9825L4 231.652H568L535.018 42.0527Z" fill="#FFFA87"/>
<path d="M520.889 56H51.1111L20 219H552L520.889 56Z" fill="#FFD600"/>
<path d="M503.163 75.0898H69.8737L45.6289 199.91H527.061L503.163 75.0898Z" fill="url(#paint0_linear_55_2077)"/>
<path d="M354.646 473H218.664L209 496H365L354.646 473Z" fill="#FFAA2B"/>
<rect x="132" y="745" width="33" height="75" rx="2" fill="#FFAA2B"/>
<rect x="407" y="745" width="33" height="75" rx="2" fill="#FFAA2B"/>
<rect x="157.82" y="488.68" width="255.698" height="315.109" rx="50" fill="#FFF500"/>
<path d="M192 513V690H200.5V520.335H372V690H380V513H192Z" fill="#090E44" fill-opacity="0.75"/>
<rect x="192" y="709" width="8" height="62" fill="#090E44" fill-opacity="0.75"/>
<rect x="207" y="709" width="8" height="62" fill="#090E44" fill-opacity="0.75"/>
<rect x="222" y="709" width="8" height="62" fill="#090E44" fill-opacity="0.75"/>
<rect x="237" y="709" width="8" height="62" fill="#090E44" fill-opacity="0.75"/>
<rect x="252" y="709" width="8" height="62" fill="#090E44" fill-opacity="0.75"/>
<rect x="267" y="709" width="8" height="62" fill="#090E44" fill-opacity="0.75"/>
<rect x="282" y="709" width="8" height="62" fill="#090E44" fill-opacity="0.75"/>
<rect x="297" y="709" width="8" height="62" fill="#090E44" fill-opacity="0.75"/>
<rect x="312" y="709" width="8" height="62" fill="#090E44" fill-opacity="0.75"/>
<rect x="327" y="709" width="8" height="62" fill="#090E44" fill-opacity="0.75"/>
<rect x="342" y="709" width="8" height="62" fill="#090E44" fill-opacity="0.75"/>
<rect x="357" y="709" width="8" height="62" fill="#090E44" fill-opacity="0.75"/>
<rect x="372" y="709" width="8" height="62" fill="#090E44" fill-opacity="0.75"/>
<rect x="195" y="361" width="33" height="75" rx="2" fill="#FFFA87"/>
<rect x="345" y="361" width="33" height="75" rx="2" fill="#FFFA87"/>
<path d="M228 355V302H345V355C294.958 325.432 246.149 342.68 228 355Z" fill="#FFAA2B"/>
<rect x="281" y="804" width="10" height="113" rx="2" fill="#FFFA87"/>
<defs>
<linearGradient id="paint0_linear_55_2077" x1="71.5" y1="75" x2="519.5" y2="183.5" gradientUnits="userSpaceOnUse">
<stop/>
<stop offset="1" stop-color="#000958" stop-opacity="0.9"/>
</linearGradient>
</defs>
</svg>
