<svg width="434" height="599" viewBox="0 0 434 599" fill="none" xmlns="http://www.w3.org/2000/svg">
<path fill-rule="evenodd" clip-rule="evenodd" d="M103.969 226.73H182.09V220.998H103.399C102.737 217.856 97.0996 217.057 94.2646 217.057C70.4526 217.057 53.4754 224.939 50.5356 227.805C50.1682 230.671 50.3886 237.98 52.7404 242.853C60.4573 248.227 85.8128 238.553 96.102 234.254C102.104 231.746 103.729 229.238 103.969 226.73Z" fill="black"/>
<path fill-rule="evenodd" clip-rule="evenodd" d="M331.281 226.73H253.16V220.998H331.851C332.513 217.856 338.15 217.057 340.985 217.057C364.797 217.057 381.775 224.939 384.714 227.805C385.082 230.671 384.861 237.98 382.51 242.853C374.793 248.227 349.437 238.553 339.148 234.254C333.146 231.746 331.521 229.238 331.281 226.73Z" fill="black"/>
<rect x="70.3867" y="4" width="64.9751" height="190.05" rx="15" fill="black"/>
<rect x="299.301" y="4" width="64.9751" height="190.05" rx="15" fill="black"/>
<rect x="4" y="273.799" width="81.2062" height="321.201" rx="30" fill="black"/>
<rect x="348.793" y="273.799" width="81.2062" height="321.201" rx="30" fill="black"/>
<path d="M160.263 558.366L137.944 513.352C136.296 510.028 138.714 506.131 142.423 506.131H292.068C295.819 506.131 298.234 510.107 296.505 513.436L273.124 558.45C272.263 560.106 270.553 561.145 268.686 561.145H164.742C162.842 561.145 161.107 560.068 160.263 558.366Z" fill="#FFAA2B"/>
<path d="M376.194 264.434H308.186V552.962C308.186 565.605 311.411 587.368 332.916 590.89C388.021 595.496 391.785 577.886 394.204 568.675C396.319 560.621 404.74 363.319 408.182 326.474C410.51 301.549 405.763 269.039 376.194 264.434Z" fill="#FFD600"/>
<path d="M57.7983 264.434H125.806V552.962C125.806 565.605 122.581 587.368 101.076 590.89C45.9708 595.496 42.2075 577.886 39.7882 568.675C37.6729 560.621 29.2518 363.319 25.81 326.474C23.4817 301.549 28.2296 269.039 57.7983 264.434Z" fill="#FFD600"/>
<rect x="96.3789" y="45.0098" width="61.9763" height="165.043" rx="15" fill="#FFD600"/>
<rect x="276.309" y="45.0098" width="61.9763" height="165.043" rx="15" fill="#FFD600"/>
<rect x="63.3906" y="496.127" width="32.9874" height="75.0196" rx="2" fill="#FFAA2B"/>
<rect x="338.285" y="496.127" width="32.9874" height="75.0196" rx="2" fill="#FFAA2B"/>
<rect x="127.367" y="45.0098" width="32.9874" height="92.024" rx="2" fill="#FFAA2B"/>
<rect x="274.312" y="45.0098" width="32.9874" height="92.024" rx="2" fill="#FFAA2B"/>
<rect x="149.359" y="21.0039" width="135.948" height="205.053" rx="15" fill="#FFE500"/>
<path d="M264.665 547.143H168.549C167.673 547.143 166.899 546.573 166.639 545.737L159.163 521.73C158.763 520.442 159.725 519.135 161.073 519.135H273.449C274.838 519.135 275.805 520.517 275.327 521.822L266.543 545.83C266.255 546.618 265.505 547.143 264.665 547.143Z" fill="black"/>
<path d="M174.271 45.9985C165.129 36.4343 171.419 21.0039 184.65 21.0039H271.307C279.591 21.0039 286.307 27.7196 286.307 36.0039V221.06C286.307 229.344 279.591 236.06 271.307 236.06H189.364C175.503 236.06 168.736 218.361 177.918 207.978C243.652 133.642 208.759 82.0779 174.271 45.9985Z" fill="url(#paint0_linear_56_2269)" fill-opacity="0.75"/>
<path d="M285.308 212.055H149.36L140.363 242.063H295.304L285.308 212.055Z" fill="#FFAA2B"/>
<rect x="100.066" y="239.742" width="233.87" height="288.396" rx="20" fill="#FFF500"/>
<path d="M131.32 262.002V423.997H139.095V268.715H295.955V423.997H303.272V262.002H131.32Z" fill="#090E44" fill-opacity="0.75"/>
<rect x="131.32" y="441.387" width="7.31709" height="56.7439" fill="#090E44" fill-opacity="0.75"/>
<rect x="145.043" y="441.387" width="7.31709" height="56.7439" fill="#090E44" fill-opacity="0.75"/>
<rect x="158.758" y="441.387" width="7.31709" height="56.7439" fill="#090E44" fill-opacity="0.75"/>
<rect x="172.48" y="441.387" width="7.31709" height="56.7439" fill="#090E44" fill-opacity="0.75"/>
<rect x="186.199" y="441.387" width="7.31709" height="56.7439" fill="#090E44" fill-opacity="0.75"/>
<rect x="199.918" y="441.387" width="7.31709" height="56.7439" fill="#090E44" fill-opacity="0.75"/>
<rect x="213.637" y="441.387" width="7.31709" height="56.7439" fill="#090E44" fill-opacity="0.75"/>
<rect x="227.359" y="441.387" width="7.31709" height="56.7439" fill="#090E44" fill-opacity="0.75"/>
<rect x="241.074" y="441.387" width="7.31709" height="56.7439" fill="#090E44" fill-opacity="0.75"/>
<rect x="254.797" y="441.387" width="7.31709" height="56.7439" fill="#090E44" fill-opacity="0.75"/>
<rect x="268.516" y="441.387" width="7.31709" height="56.7439" fill="#090E44" fill-opacity="0.75"/>
<rect x="282.234" y="441.387" width="7.31709" height="56.7439" fill="#090E44" fill-opacity="0.75"/>
<rect x="295.957" y="441.387" width="7.31709" height="56.7439" fill="#090E44" fill-opacity="0.75"/>
<ellipse cx="217.831" cy="267.568" rx="22.4914" ry="15.504" fill="#FFAA2B"/>
<defs>
<linearGradient id="paint0_linear_56_2269" x1="164.967" y1="90.7682" x2="287.3" y2="141.163" gradientUnits="userSpaceOnUse">
<stop stop-color="#FFE500"/>
<stop offset="1" stop-color="#FFAA2B"/>
</linearGradient>
</defs>
</svg>
