<svg width="572" height="958" viewBox="0 0 572 958" fill="none" xmlns="http://www.w3.org/2000/svg">
<path d="M307.619 855.861H262.61C247.076 855.861 234.111 867.72 232.729 883.193L229.323 921.331C227.756 938.883 241.583 953.999 259.205 953.999H311.62C329.427 953.999 343.315 938.578 341.457 920.868L337.455 882.731C335.852 867.458 322.975 855.861 307.619 855.861Z" fill="black"/>
<rect x="138.508" y="311.766" width="65.9221" height="154.216" rx="30" fill="black"/>
<rect x="367.57" y="311.766" width="65.9221" height="154.216" rx="30" fill="black"/>
<rect x="72.5859" y="522.729" width="81.2373" height="321.117" rx="30" fill="black"/>
<rect x="417.512" y="522.729" width="81.2373" height="321.117" rx="30" fill="black"/>
<path d="M142.835 4L152.35 42.0534H133.32L142.835 4Z" fill="black"/>
<path d="M237.722 4L247.526 42.0534H227.919L237.722 4Z" fill="black"/>
<path d="M333.609 4L343.412 42.0534H323.806L333.609 4Z" fill="black"/>
<path d="M428.499 4L438.014 42.0534H418.984L428.499 4Z" fill="black"/>
<path d="M523.715 4L533.807 42.0534H513.624L523.715 4Z" fill="black"/>
<path d="M47.2809 4L57.0843 42.0534H37.4775L47.2809 4Z" fill="black"/>
<path d="M250.236 898.873L238.25 793.335C236.903 781.472 246.183 771.078 258.123 771.078H313.75C325.732 771.078 335.025 781.543 333.61 793.441L321.053 898.979C319.856 909.039 311.325 916.616 301.193 916.616H270.108C259.936 916.616 251.384 908.98 250.236 898.873Z" fill="#FFD600"/>
<path d="M444.924 501.365H376.89V789.818C376.89 802.458 380.116 824.216 401.629 827.737C456.756 832.341 460.52 814.736 462.941 805.527C465.057 797.475 473.481 600.225 476.924 563.389C479.253 538.471 474.504 505.97 444.924 501.365Z" fill="#FFD600"/>
<path d="M126.405 501.365H194.438V789.818C194.438 802.458 191.212 824.216 169.699 827.737C114.572 832.341 110.808 814.736 108.388 805.527C106.271 797.475 97.847 600.225 94.4039 563.389C92.0748 538.471 96.8245 505.97 126.405 501.365Z" fill="#FFD600"/>
<rect x="165.141" y="345.146" width="61.9268" height="134.188" rx="30" fill="#FFD600"/>
<rect x="344.93" y="345.146" width="61.9268" height="134.188" rx="30" fill="#FFD600"/>
<rect x="217.75" y="319.777" width="136.505" height="181.588" rx="20" fill="#FFE600"/>
<path d="M189.117 418.596V227.633C189.117 222.11 193.594 217.633 199.117 217.633H202.423C207.946 217.633 212.423 222.11 212.423 227.633V418.596C212.423 424.118 207.946 428.596 202.423 428.596H199.117C193.594 428.596 189.117 424.118 189.117 418.596Z" fill="#FFFA87"/>
<path d="M358.914 421.933V230.971C358.914 225.448 363.391 220.971 368.914 220.971H372.22C377.743 220.971 382.22 225.448 382.22 230.971V421.933C382.22 427.456 377.743 431.933 372.22 431.933H368.914C363.391 431.933 358.914 427.456 358.914 421.933Z" fill="#FFFA87"/>
<path d="M274.348 906.615V715.652C274.348 710.129 278.825 705.652 284.348 705.652H287.653C293.176 705.652 297.653 710.129 297.653 715.652V906.615C297.653 912.138 293.176 916.615 287.653 916.615H284.348C278.825 916.615 274.348 912.138 274.348 906.615Z" fill="#FFFA87"/>
<path d="M535.018 42.0527H36.9825L4 231.652H568L535.018 42.0527Z" fill="#FFF500"/>
<rect x="157.82" y="488.68" width="255.698" height="315.109" rx="100" fill="#FFF500"/>
<path d="M511.458 62.0801H59.8749L29.9688 210.288H541.364L511.458 62.0801Z" fill="#FFFA87"/>
<path d="M494.419 79.4375H77.9113L54.6055 192.93H517.392L494.419 79.4375Z" fill="#00063E"/>
</svg>
