<svg width="613" height="958" viewBox="0 0 613 958" fill="none" xmlns="http://www.w3.org/2000/svg">
<rect x="443.223" y="10" width="98.2698" height="308.896" rx="30" fill="black"/>
<rect x="445.789" y="494.402" width="163.213" height="459.597" rx="60" fill="black"/>
<rect x="4" y="494.402" width="163.213" height="459.597" rx="60" fill="black"/>
<path d="M528.822 441.117H441.514V848.583C441.514 866.437 445.655 897.173 473.262 902.146C544.006 908.65 548.837 883.782 551.943 870.773C554.659 859.399 565.47 580.765 569.888 528.732C572.877 493.533 566.782 447.621 528.822 441.117Z" fill="#B50000"/>
<path d="M84.178 441.117H171.486V848.583C171.486 866.437 167.345 897.173 139.738 902.146C68.994 908.65 64.1628 883.782 61.0569 870.773C58.3412 859.399 47.5304 580.765 43.1119 528.732C40.1229 493.533 46.2181 447.621 84.178 441.117Z" fill="#B50000"/>
<path d="M229.969 792.543C235.354 776.111 250.688 765 267.979 765H366.762C384.285 765 399.768 776.405 404.964 793.139L410.888 812.219C418.88 837.962 399.641 864.08 372.686 864.08H261.726C234.509 864.08 215.239 837.486 223.715 811.622L229.969 792.543Z" fill="#B50000"/>
<rect x="82.6172" y="10" width="98.2698" height="308.896" rx="30" fill="black"/>
<path d="M125.344 96.9707C125.344 66.8712 149.744 42.4707 179.844 42.4707H188.486C205.055 42.4707 218.486 55.9022 218.486 72.4707V295.556C218.486 312.124 205.055 325.556 188.486 325.556H155.344C138.775 325.556 125.344 312.124 125.344 295.556V96.9707Z" fill="#B50000"/>
<path d="M498.766 96.9707C498.766 66.8712 474.365 42.4707 444.266 42.4707H435.623C419.054 42.4707 405.623 55.9022 405.623 72.4707V295.556C405.623 312.124 419.054 325.556 435.623 325.556H468.766C485.334 325.556 498.766 312.124 498.766 295.556V96.9707Z" fill="#B50000"/>
<path d="M433.396 43.7208C350.507 -9.98237 232.726 16.2449 194.13 43.7208V362.191L184.73 388.002H443.65L433.396 362.191V43.7208Z" fill="#F10000"/>
<path fill-rule="evenodd" clip-rule="evenodd" d="M542.601 391.994H451.77V385.333H543.265C544.034 381.683 550.589 380.754 553.885 380.754C581.571 380.754 601.311 389.913 604.729 393.243C605.156 396.573 604.9 405.066 602.165 410.728C593.193 416.972 563.712 405.732 551.749 400.736C544.77 397.822 542.88 394.908 542.601 391.994Z" fill="black"/>
<path fill-rule="evenodd" clip-rule="evenodd" d="M90.219 392.408H181.051V385.747H89.5557C88.7858 382.097 82.2316 381.168 78.9355 381.168C51.2491 381.168 31.5096 390.327 28.0915 393.657C27.6642 396.987 27.9206 405.48 30.6551 411.142C39.6275 417.386 69.1085 406.146 81.0718 401.15C88.0503 398.236 89.9404 395.322 90.219 392.408Z" fill="black"/>
<rect x="127.051" y="377.006" width="380.261" height="437.117" rx="100" fill="#FF0000"/>
</svg>
