<svg width="613" height="958" viewBox="0 0 613 958" fill="none" xmlns="http://www.w3.org/2000/svg">
<rect x="440.812" y="10" width="93.9682" height="309.484" rx="30" fill="black"/>
<rect x="450.43" y="493.691" width="158.571" height="460.309" rx="60" fill="black"/>
<rect x="4" y="493.691" width="158.571" height="460.309" rx="60" fill="black"/>
<path d="M523.626 440.807H438.85V850.152C438.85 868.089 442.87 898.966 469.677 903.963C538.369 910.497 543.061 885.513 546.076 872.445C548.713 861.018 559.211 581.099 563.501 528.826C566.403 493.464 560.485 447.341 523.626 440.807Z" fill="#FFD600"/>
<path d="M89.7923 440.807H174.568V850.152C174.568 868.089 170.548 898.966 143.741 903.963C75.0486 910.497 70.3575 885.513 67.3417 872.445C64.7047 861.018 54.2073 581.099 49.917 528.826C47.0147 493.464 52.9332 447.341 89.7923 440.807Z" fill="#FFD600"/>
<path d="M230.842 793.534C236.217 777.086 251.559 765.959 268.863 765.959H365.339C382.873 765.959 398.363 777.379 403.549 794.129L409.103 812.067C417.071 837.803 397.833 863.897 370.892 863.897H263.001C235.798 863.897 216.53 837.329 224.98 811.472L230.842 793.534Z" fill="#FFD600"/>
<rect x="88.4297" y="10" width="95.9258" height="309.484" rx="30" fill="black"/>
<path d="M129.543 97.7989C129.543 67.6993 153.943 43.2988 184.043 43.2988H189.596C206.164 43.2988 219.596 56.7303 219.596 73.2988V295.361C219.596 311.929 206.164 325.361 189.596 325.361H159.543C142.974 325.361 129.543 311.929 129.543 295.361V97.7989Z" fill="#FFD600"/>
<path d="M493.668 97.7989C493.668 67.6993 469.267 43.2988 439.168 43.2988H433.615C417.047 43.2988 403.615 56.7303 403.615 73.2988V295.361C403.615 311.929 417.047 325.361 433.615 325.361H463.668C480.236 325.361 493.668 311.929 493.668 295.361V97.7989Z" fill="#FFD600"/>
<path d="M430.807 43.2083C349.961 -10.5809 235.082 15.6883 197.438 43.2083V362.189L188.27 388.041H440.809L430.807 362.189V43.2083Z" fill="#FFE500"/>
<path fill-rule="evenodd" clip-rule="evenodd" d="M536.608 392.199H448.109V385.534H537.254C538.005 381.883 544.391 380.953 547.602 380.953C574.578 380.953 593.81 390.117 597.141 393.449C597.557 396.781 597.307 405.278 594.643 410.943C585.901 417.191 557.177 405.944 545.521 400.946C538.721 398.03 536.879 395.115 536.608 392.199Z" fill="black"/>
<path fill-rule="evenodd" clip-rule="evenodd" d="M95.8373 392.613H184.336V385.948H95.1908C94.4403 382.297 88.0547 381.367 84.8433 381.367C57.8677 381.367 38.635 390.531 35.3047 393.863C34.8884 397.195 35.1382 405.692 37.8025 411.357C46.5446 417.605 75.2687 406.359 86.9248 401.36C93.7246 398.444 95.5659 395.529 95.8373 392.613Z" fill="black"/>
<rect x="131.5" y="378.123" width="370" height="436.804" rx="100" fill="#FFF500"/>
</svg>
