<svg width="624" height="711" viewBox="0 0 624 711" fill="none" xmlns="http://www.w3.org/2000/svg">
<rect x="301.967" y="39.2578" width="21.8775" height="53.4848" fill="black"/>
<rect x="542.619" y="268.592" width="77.3816" height="223.664" rx="24.3011" fill="black"/>
<rect x="5" y="268.592" width="77.3816" height="223.664" rx="24.3011" fill="black"/>
<rect x="47.9453" y="74.5078" width="529.112" height="632.498" rx="24.3011" fill="#FF6464"/>
<ellipse cx="312.499" cy="23.4549" rx="19.4467" ry="19.449" fill="black"/>
<ellipse cx="312.5" cy="23.2529" rx="11.3439" ry="11.5478" fill="#FF0000"/>
<path d="M126.634 148.632L66.5801 92.3379V689.178L126.634 624.758V148.632Z" fill="#FF0000"/>
<path d="M66.5801 92.3379L125.643 148.632H507.171L559.495 92.3379H66.5801Z" fill="#C60000"/>
<path d="M66.5801 689.177L126.634 624.756H507.171L559.099 689.177H66.5801Z" fill="#C60000"/>
<rect x="126.633" y="148.434" width="380.538" height="476.125" fill="#B50000"/>
<rect x="133.025" y="160.004" width="5.32171" height="452.735" rx="2.40233" fill="#090E44" fill-opacity="0.62"/>
<rect x="152.715" y="160.004" width="5.32171" height="452.735" rx="2.40233" fill="#090E44" fill-opacity="0.62"/>
<rect x="172.406" y="160.004" width="5.32171" height="452.735" rx="2.40233" fill="#090E44" fill-opacity="0.62"/>
<rect x="192.094" y="160.004" width="5.32171" height="452.735" rx="2.40233" fill="#090E44" fill-opacity="0.62"/>
<rect x="211.783" y="160.004" width="5.32171" height="452.735" rx="2.40233" fill="#090E44" fill-opacity="0.62"/>
<rect x="231.484" y="160.004" width="5.32171" height="452.735" rx="2.40233" fill="#090E44" fill-opacity="0.62"/>
<rect x="251.174" y="160.004" width="5.32171" height="452.735" rx="2.40233" fill="#090E44" fill-opacity="0.62"/>
<rect x="270.861" y="160.004" width="5.32171" height="452.735" rx="2.40233" fill="#090E44" fill-opacity="0.62"/>
<rect x="290.553" y="160.004" width="5.32171" height="452.735" rx="2.40233" fill="#090E44" fill-opacity="0.62"/>
<rect x="310.244" y="160.004" width="5.32171" height="452.735" rx="2.40233" fill="#090E44" fill-opacity="0.62"/>
<rect x="329.938" y="160.004" width="5.32171" height="452.735" rx="2.40233" fill="#090E44" fill-opacity="0.62"/>
<rect x="349.625" y="160.004" width="5.32171" height="452.735" rx="2.40233" fill="#090E44" fill-opacity="0.62"/>
<rect x="369.312" y="160.004" width="5.32171" height="452.735" rx="2.40233" fill="#090E44" fill-opacity="0.62"/>
<rect x="389.006" y="160.004" width="5.32171" height="452.735" rx="2.40233" fill="#090E44" fill-opacity="0.62"/>
<rect x="408.703" y="160.004" width="5.32171" height="452.735" rx="2.40233" fill="#090E44" fill-opacity="0.62"/>
<rect x="428.395" y="160.004" width="5.32171" height="452.735" rx="2.40233" fill="#090E44" fill-opacity="0.62"/>
<rect x="448.088" y="160.004" width="5.32171" height="452.735" rx="2.40233" fill="#090E44" fill-opacity="0.62"/>
<rect x="467.77" y="160.004" width="5.32171" height="452.735" rx="2.40233" fill="#090E44" fill-opacity="0.62"/>
<rect x="487.467" y="160.004" width="5.32171" height="452.735" rx="2.40233" fill="#090E44" fill-opacity="0.62"/>
<path d="M499.269 149.037L559.322 92.7422V689.582L499.269 625.162V149.037Z" fill="#FF0000"/>
</svg>
