<!-- icon666.com - MILLIONS vector ICONS FREE --><svg id="Line" viewBox="0 0 64 64" xmlns="http://www.w3.org/2000/svg"><path d="m39.09521 28.78516c-.37805.06878-1.3872.26373-2.53546.55938a4.70229 4.70229 0 0 0 .20588-1.30938c0-2.27735-3.28663-7.15039-3.94532-8.10352a1.037 1.037 0 0 0 -1.64551 0c-.82773 1.37776-4.84616 6.69087-3.739 9.41292-1.14833-.29567-2.15755-.49062-2.53542-.5594a.98443.98443 0 0 0 -.88672.27636.99932.99932 0 0 0 -.27685.88672c.16894.92285 1.07763 5.5918 2.4082 6.92188a3.98347 3.98347 0 0 0 4.85254.6159v6.012a1.00019 1.00019 0 0 0 2-.00007v-6.01195a3.98419 3.98419 0 0 0 4.853-.61591c1.33007-1.33007 2.23925-5.999 2.4082-6.92187a1.006 1.006 0 0 0 -1.16354-1.16306zm-9.86523-.75c0-1.00586 1.43018-3.626 2.76758-5.72461 1.33789 2.09863 2.76807 4.71875 2.76807 5.72461a2.76807 2.76807 0 0 1 -5.53563 0zm-1.6709 7.42089c-.47168-.47167-1.09765-2.42773-1.55078-4.39941a13.78971 13.78971 0 0 1 4.39945 1.55071 2.01454 2.01454 0 0 1 -2.84867 2.8487zm8.87744 0a2.00354 2.00354 0 1 1 -2.628-3.0152 17.1428 17.1428 0 0 1 4.17879-1.38422c-.45362 1.97169-1.0796 3.92775-1.55079 4.39942z"/><path d="m31.99756 14.46875a17.55039 17.55039 0 0 0 -17.53027 17.53025c.96324 23.25652 34.10146 23.24924 35.06106-.00013a17.55052 17.55052 0 0 0 -17.53079-17.53012zm0 33.06055a15.54779 15.54779 0 0 1 -15.53027-15.5303c.853-20.60326 30.211-20.59677 31.06106.00012a15.54823 15.54823 0 0 1 -15.53079 15.53018z"/><path d="m52.882 14.35919a.99107.99107 0 0 0 .07507-.81457v-3.4538a1.00018 1.00018 0 0 0 -2 .00006v1.30884a27.97685 27.97685 0 0 0 -33.94388-3.04514 1.00036 1.00036 0 0 0 1.07428 1.68742 25.968 25.968 0 0 1 31.63753 2.94539l-1.664-.00009a1 1 0 0 0 0 2h3.896a.99686.99686 0 0 0 .925-.62811z"/><path d="m12.98633 14.30188v1.63367a1.00018 1.00018 0 0 0 2-.00006v-3.89643a1.43578 1.43578 0 0 0 -.31931-.77833.98958.98958 0 0 0 -1.15414-.22167h-3.423a1.00018 1.00018 0 0 0 .00006 2h1.34443a27.86491 27.86491 0 0 0 -3.00021 34.07323 1 1 0 0 0 1.68153-1.08208 25.88046 25.88046 0 0 1 2.87064-31.72833z"/><path d="m54.1709 16.56348a.99911.99911 0 0 0 -.29834 1.38183 25.90666 25.90666 0 0 1 -2.86336 31.74769l.00008-1.6305a1 1 0 0 0 -2 0v3.8955a.99974.99974 0 0 0 1 1h3.896a1.00018 1.00018 0 0 0 -.00006-2h-1.34638a27.89431 27.89431 0 0 0 2.99431-34.09666 1.00023 1.00023 0 0 0 -1.38225-.29786z"/><path d="m46.16455 53.80566a25.99572 25.99572 0 0 1 -31.8631-2.795l1.63312.00008a1.00018 1.00018 0 0 0 -.00006-2h-3.89642a.99974.99974 0 0 0 -1 1v3.89551a1.00017 1.00017 0 0 0 2-.00006v-1.30719a27.95942 27.95942 0 0 0 34.21727 2.88235.99992.99992 0 0 0 -1.09081-1.67569z"/></svg>